<svg width="600" height="215" viewBox="0 0 600 215" fill="none" xmlns="http://www.w3.org/2000/svg">
<rect width="600" height="215" fill="#2F2F2F"/>
<path d="M176.562 98.5625L181.688 100.188L181.562 101.25L176.312 100.688L176.562 98.5625ZM156.25 98.4375L159.188 100.938L168.938 99.875L169.875 101.062L170.938 101.188L174.188 100.5C186.104 101.75 194.708 107.667 200 118.25C201.417 118.417 201.938 120.25 201.562 123.75L200.75 131.188L198.625 130.938L198.75 129.875L200.188 126.812L199.25 125.625L200.375 124.688L199.438 123.5L197.375 123.312C196.917 127.354 192.875 131.542 185.25 135.875L185.125 136.938L186.188 137C188.854 137.333 192.583 135.979 197.375 132.938L197.188 135.062L191.125 140.812C195.042 141.229 200.771 147.542 208.312 159.75C207.479 167.5 195.917 175.5 173.625 183.75C164.083 188.375 156.729 190.417 151.562 189.875L149.688 187.438L148.625 187.375C148.417 189.5 146.896 190.396 144.062 190.062C143.812 192.021 143.104 193 141.938 193H141.562C140.146 192.833 139.729 190.292 140.312 185.375L139.25 185.312L137.625 190.438L136.562 190.312C137.312 183.312 136.625 179.708 134.5 179.5L133.938 175.125L135.125 174.188L134.125 173L144.438 128.125L143.5 127L144.562 127.125L143.625 126L146.438 110.25L146.5 109.188L145.188 101.562L146.25 101.625C150.208 99.4583 153.312 98.375 155.562 98.375C155.812 98.375 156.042 98.3958 156.25 98.4375ZM181.5 111.938L181.375 113L189.75 115C189.875 113.583 188.896 112.771 186.812 112.562L181.5 111.938ZM161.062 122.5L161.375 130L171.062 128.938L170.875 131.062L186.562 124.25L186.438 125.312L178.375 130.812C187.167 128.396 191.896 124.292 192.562 118.5L190.438 118.25C190.021 121.75 188.771 123.396 186.688 123.188L186.875 121.062L185.812 121L187.25 117.875L188.188 119.062L189.25 119.25L189.375 118.188C186.792 115.729 182.667 114.208 177 113.625C167.167 112.5 161.854 115.458 161.062 122.5ZM185.812 121L185.75 122.062L183.375 123.875L182.312 123.812L185.812 121ZM180.938 146.125L180.875 147.125L191.25 149.375L192.312 149.438L192.438 148.375L188.312 146.875L180.938 146.125ZM157.062 149.875L153.875 168.75L154.812 169.938L155.875 170.062C160.958 170.646 172.479 166.208 190.438 156.75L192.812 154.875C192.688 152 190.021 150.292 184.812 149.75L176.375 148.75L157.062 149.875ZM195.062 154L192.5 158.062L197.062 155.375L196.125 154.188L195.062 154ZM202 159.062C201.75 161.271 194.75 166.562 181 174.938C196.667 168.688 204.667 163.875 205 160.5L203.938 160.375L203.062 159.188L202 159.062ZM267.125 101.75L272.25 105.312C270.75 111.604 268.042 114.625 264.125 114.375L236.375 115.625L236.25 117.75L241.5 118.125L247.938 117.5L248.938 118.688L250 118.75L257.5 118.125L259.625 118.312L259.562 119.375L234.875 121.938L232.938 135.688L234 135.75L262.875 133.438L263.812 134.562L263.75 135.625L261.625 135.438V136.5L268.938 138.125L268.875 139.188C267.333 143.146 257.167 146.354 238.375 148.812L227.688 149.188L228.688 150.25L223.562 163.75H222.5L223.125 154.188L222.062 154.125L220 168.875C241.208 166.042 256.188 164.917 264.938 165.5L270.125 166.938L270.062 169.062L267.938 168.938L268.875 170.062L268.688 173.25C266.646 175.917 262.312 177.042 255.688 176.625L255.625 177.688L264.125 178.25L263.938 180.375L214.5 187.625L213.438 187.562C210.021 186.812 208.312 185.708 208.312 184.25V184.062L208.5 180.875L211.438 169.375L210.438 168.25L212.562 168.312L212.188 173.625L213.25 173.75C213.667 170.208 214.5 168.5 215.75 168.625L214.75 167.438L215.5 156.875L213.375 156.688L211.938 161.938L213.125 160.938L214.188 161L213.75 167.375L212.688 167.25L212.875 164.125L211.812 164.062L211.688 166.188L210.625 166.125L210.75 164L214.125 146.062L213.062 146L215.5 140.875L214.5 139.75L214.562 138.688L216.875 120.75L217.875 121.875L218.938 121.938L219.062 119.812L218.375 114.438L220.062 104.938L220.25 101.75L221.312 101.875L222.312 103L223.438 102L224.5 102.125L225.5 103.188L226.625 102.188L229.812 102.438L267.125 101.75ZM213.938 148.188L213.438 155.625L214.5 155.688L215 148.312L213.938 148.188ZM249 149.562H250.062L249.938 150.625L230.688 152.562L229.688 151.375L229.75 150.375L239.375 149.938L239.312 151L249 149.562ZM314.875 96.875C315.333 99 318.167 100.062 323.375 100.062L331.875 137.25H339.312V138.312L332.938 139.375V140.438C335.062 140.438 336.125 141.146 336.125 142.562H344.625V143.625C344.625 145.208 341.083 146.625 334 147.875L336.125 154.25L335.062 157.438L336.125 163.812L335.062 164.875H336.125L335.062 165.938L336.125 178.688V185.062L335.062 184H334L337.188 199.938H335.062C335.062 197.812 334.354 196.75 332.938 196.75V197.812L334 201H332.938L331.875 199.938H330.812C330.812 202.062 330.104 203.125 328.688 203.125L323.375 185.062H322.312V189.312H321.25L319.125 176.562L322.312 178.688V177.625C321.729 171.25 320.667 168.062 319.125 168.062L320.188 167V163.812H318.062V167H317V162.75L318.062 161.688H317L315.938 162.75V158.5H317L318.062 159.562H319.125L318.062 158.5V152.125L294.688 157.438V159.562L302.125 157.438L306.375 158.5L311.688 157.438V159.562C296.812 162.229 289.375 165.771 289.375 170.188C287.5 177.979 285.375 182.938 283 185.062V187.188H279.812L278.75 186.125H277.688V187.188L274.5 185.062L276.625 178.688H275.562C273.438 178.688 272.375 181.521 272.375 187.188L270.25 185.062L271.312 178.688L268.125 175.5L286.188 131.938H287.25C287.25 134.062 287.958 135.125 289.375 135.125L290.438 129.812L289.375 130.875H288.312V126.625L289.375 121.312L290.438 122.375H291.5L290.438 121.312V120.25L292.562 116H293.625L294.688 117.062H295.75V116C295.75 114.583 294.688 113.875 292.562 113.875L297.875 99H302.125L301.062 100.062V101.125C305.979 98.2917 310.583 96.875 314.875 96.875ZM308.5 121.312L300 143.625H302.125C309.208 143.625 313.104 141.5 313.812 137.25L309.562 121.312H308.5ZM298.938 127.688L296.812 135.125L295.75 134.062H294.688L295.75 138.312H296.812L300 128.75V127.688H298.938ZM287.25 137.25L286.188 138.312V140.438H287.25L288.312 137.25H287.25ZM293.625 141.5L292.562 145.75H293.625L294.688 144.688V141.5H293.625ZM284.062 142.562L283 146.812H284.062L286.188 142.562H284.062ZM302.125 145.75V146.812H304.25C310.625 146.104 313.812 145.042 313.812 143.625H312.75L302.125 145.75ZM317 169.125H319.125V175.5H318.062L317 169.125ZM331.875 176.562V178.688L332.938 182.938H334V180.812L332.938 176.562H331.875ZM321.25 179.75V181.875L324.438 180.812V178.688L321.25 179.75ZM381.688 100.188C383.562 101.604 389.521 102.312 399.562 102.312L399.5 103.375H392.062L392 104.438C400.875 104.438 406.417 106.562 408.625 110.812L408.5 112.938H403.188L403.125 114L410.5 115.062L410.438 116.125H404.062L404 117.188C406.125 117.188 407.146 117.896 407.062 119.312C394.438 119.312 383.167 123.917 373.25 133.125L373.188 134.188C386.896 137.854 397.75 146 405.75 158.625L405.688 159.688C403.104 168.854 395.875 177.354 384 185.188L377.5 186.25L377.438 187.312H379.562C379.479 189.229 372.979 191.354 360.062 193.688L360.188 191.562H365.5L365.625 190.5C361.083 190.5 356.979 188.021 353.312 183.062C350.146 181.438 348.562 178.333 348.562 173.75C348.562 173.333 348.583 172.896 348.625 172.438L351.938 170.312L355 172.438H357.125C377.125 169.312 387.438 162.938 388.062 153.312C379.688 149.062 374.146 146.938 371.438 146.938L371.375 148L360.938 143.75L361.938 144.812L361.875 146.938C353.042 140.438 348.729 135.479 348.938 132.062L357.25 117.188L362.812 112.938L362.688 115.062L381.688 100.188ZM367.188 128.875L367.125 129.938L385.875 118.25L394.5 116.125L394.625 114H392.5C381.292 118.167 372.854 123.125 367.188 128.875ZM373.062 172.438H374.125L376.375 170.312H375.312L373.062 172.438ZM392.188 172.438L387.625 177.75H388.688L393.25 172.438H392.188ZM378.875 180.938V182H379.938L384.375 178.812L378.875 180.938ZM366.812 188.375L366.75 189.438H371L376.375 188.375V187.312H375.312L366.812 188.375ZM474.062 99.8125L477.25 100.875V103H474.062L476.188 106.188C474.646 109.729 468.979 111.5 459.188 111.5L451.75 112.562L450.688 115.75H451.75C449.625 120.792 445.375 143.458 439 183.75L442.188 197.562H441.125C439.542 197.562 438.125 194.021 436.875 186.938L437.938 176.312V175.25H436.875V177.375C434.75 177.375 433.688 178.083 433.688 179.5V180.562L435.812 197.562V198.625H433.688L429.438 195.438L428.375 196.5H427.312C424.479 190.375 423.062 185.062 423.062 180.562L424.125 181.625H425.188L423.062 174.188L426.25 173.125V167.812H424.125V166.75C426.25 166.75 427.312 166.042 427.312 164.625V163.562H425.188C425.188 157.896 426.25 155.062 428.375 155.062V141.25C429.5 140.25 430.917 132.812 432.625 118.938L425.188 120L410.312 118.938V117.875L415.625 116.812V117.875L416.688 116.812H432.625V113.625L415.625 115.75L414.562 114.688H413.5L407.125 115.75L403.938 113.625L405 108.312L403.938 107.25C403.938 103.708 408.188 101.938 416.688 101.938L474.062 99.8125ZM467.688 103V104.062H471.938V103H467.688ZM428.375 162.5L426.25 185.875H428.375L427.312 180.562V178.438L429.438 175.25H428.375L429.438 174.188V173.125L428.375 172.062V171L430.5 166.75L429.438 162.5H428.375Z" fill="#EC6300"/>
<path d="M92.3259 58.5416H44.2426" stroke="white" stroke-width="6.5" stroke-linecap="round"/>
<path d="M85.1217 93.7237H42.8435C41.8185 93.7237 40.879 93.4475 40.0249 92.895C39.3416 92.3425 39 91.5828 39 90.6159C39 89.7871 39.3416 89.0965 40.0249 88.544C40.879 87.8534 41.8185 87.508 42.8435 87.508H85.1217C89.5631 87.508 93.3211 86.2649 96.3959 83.7786C99.4707 81.2923 101.008 78.2535 101.008 74.6622C101.008 71.071 99.4707 68.0322 96.3959 65.5459C93.3211 63.0596 89.5631 61.8165 85.1217 61.8165H63.8545C62.8295 61.8165 61.89 61.5402 61.0359 60.9877C60.3526 60.2971 60.011 59.4683 60.011 58.5014C60.011 57.6727 60.3526 56.982 61.0359 56.4295C61.89 55.7389 62.8295 55.3936 63.8545 55.3936H85.1217C89.5631 55.3936 93.3211 54.1504 96.3959 51.6641C99.4707 49.1779 101.008 46.1391 101.008 42.5478C101.008 38.9565 99.4707 35.9177 96.3959 33.4314C93.3211 30.9451 89.5631 29.702 85.1217 29.702H42.8435C41.8185 29.702 40.879 29.4257 40.0249 28.8732C39.3416 28.1826 39 27.3538 39 26.3869C39 25.5582 39.3416 24.8676 40.0249 24.315C40.879 23.6244 41.8185 23.2791 42.8435 23.2791H85.1217C88.3673 23.2791 91.4421 23.8316 94.346 24.9366C97.25 25.9035 99.7269 27.2848 101.777 29.0804C103.997 30.7379 105.706 32.7408 106.901 35.0889C108.268 37.4371 108.951 39.9234 108.951 42.5478C108.951 45.8628 107.926 48.9707 105.876 51.8713C103.997 54.6339 101.435 56.8439 98.1895 58.5014C101.435 60.2971 103.997 62.5762 105.876 65.3387C107.926 68.1012 108.951 71.2091 108.951 74.6622C108.951 77.2867 108.268 79.7729 106.901 82.1211C105.706 84.4693 103.997 86.5412 101.777 88.3368C99.7269 89.9943 97.25 91.3065 94.346 92.2734C91.4421 93.2403 88.3673 93.7237 85.1217 93.7237Z" fill="white"/>
<path d="M120.414 93.7237C119.389 93.7237 118.449 93.4475 117.595 92.895C116.912 92.3425 116.57 91.5828 116.57 90.6159V24.1079C116.57 23.2791 116.912 22.5885 117.595 22.0359C118.449 21.3453 119.389 21 120.414 21C121.609 21 122.549 21.3453 123.232 22.0359C123.915 22.5885 124.257 23.2791 124.257 24.1079V90.6159C124.257 92.6878 122.976 93.7237 120.414 93.7237Z" fill="white"/>
<path d="M197.942 93.7237H135.677C133.115 93.7237 131.834 92.6878 131.834 90.6159V26.3869C131.834 25.5582 132.176 24.8676 132.859 24.315C133.542 23.6244 134.482 23.2791 135.677 23.2791C136.702 23.2791 137.556 23.6244 138.24 24.315C139.094 24.8676 139.521 25.5582 139.521 26.3869V87.508H197.942C198.967 87.508 199.821 87.8534 200.504 88.544C201.358 89.0965 201.785 89.7871 201.785 90.6159C201.785 91.5828 201.358 92.3425 200.504 92.895C199.821 93.4475 198.967 93.7237 197.942 93.7237Z" fill="white"/>
<path d="M275.512 93.7237H213.248C210.685 93.7237 209.404 92.6878 209.404 90.6159V26.3869C209.404 25.5582 209.746 24.8676 210.429 24.315C211.112 23.6244 212.052 23.2791 213.248 23.2791C214.272 23.2791 215.127 23.6244 215.81 24.315C216.664 24.8676 217.091 25.5582 217.091 26.3869V87.508H275.512C276.537 87.508 277.391 87.8534 278.074 88.544C278.928 89.0965 279.355 89.7871 279.355 90.6159C279.355 91.5828 278.928 92.3425 278.074 92.895C277.391 93.4475 276.537 93.7237 275.512 93.7237Z" fill="white"/>
<path d="M290.818 93.7237C289.793 93.7237 288.853 93.4475 287.999 92.895C287.316 92.3425 286.974 91.5828 286.974 90.6159V24.1079C286.974 23.2791 287.316 22.5885 287.999 22.0359C288.853 21.3453 289.793 21 290.818 21C292.013 21 292.953 21.3453 293.636 22.0359C294.32 22.5885 294.661 23.2791 294.661 24.1079V90.6159C294.661 92.6878 293.38 93.7237 290.818 93.7237Z" fill="white"/>
<path d="M385.001 93.7237C383.463 93.7237 382.268 93.1712 381.414 92.0662L345.541 33.4314L309.669 92.0662C308.473 94 306.765 94.4834 304.544 93.5166C302.153 92.5497 301.555 91.1684 302.75 89.3728L342.21 25.1438C342.893 23.9007 344.004 23.2791 345.541 23.2791C347.079 23.2791 348.274 23.9007 349.128 25.1438L388.588 89.3728C388.93 90.0634 388.93 90.8231 388.588 91.6518C388.246 92.4806 387.649 93.1022 386.794 93.5166C386.453 93.6547 385.855 93.7237 385.001 93.7237Z" fill="white"/>
<path d="M465.75 88.7512C466.604 89.4418 466.946 90.2015 466.775 91.0303C466.604 91.859 466.092 92.5497 465.237 93.1022C464.383 93.5166 463.615 93.7237 462.931 93.7237C461.736 93.7237 460.711 93.3784 459.857 92.6878L428.596 60.5733V60.3661C428.596 60.3661 428.511 60.2971 428.34 60.1589V59.9518C428.169 59.8136 428.084 59.6755 428.084 59.5374V59.3302C428.084 59.1921 427.998 59.123 427.828 59.123V58.087L428.084 57.8798V57.4655L428.34 57.2583V57.0511C428.511 56.913 428.596 56.7748 428.596 56.6367C428.767 56.6367 428.853 56.5676 428.853 56.4295C429.023 56.4295 429.109 56.3605 429.109 56.2223C429.28 56.2223 429.365 56.1533 429.365 56.0151C429.536 56.0151 429.707 55.9461 429.877 55.8079H430.134C430.134 55.6698 430.219 55.6008 430.39 55.6008H430.902C430.902 55.6008 430.988 55.5317 431.159 55.3936H442.945C447.387 55.3936 451.145 54.1504 454.219 51.6641C457.294 49.1779 458.832 46.1391 458.832 42.5478C458.832 38.9565 457.294 35.9177 454.219 33.4314C451.145 30.9451 447.387 29.702 442.945 29.702H404.51V90.6159C404.51 91.5828 404.083 92.3425 403.229 92.895C402.546 93.4475 401.692 93.7237 400.667 93.7237C398.105 93.7237 396.824 92.6878 396.824 90.6159V26.3869C396.824 25.5582 397.165 24.8676 397.848 24.315C398.532 23.6244 399.471 23.2791 400.667 23.2791H442.945C446.191 23.2791 449.266 23.8316 452.17 24.9366C455.074 25.9035 457.55 27.2848 459.6 29.0804C461.821 30.7379 463.529 32.7408 464.725 35.0889C466.092 37.4371 466.775 39.9234 466.775 42.5478C466.775 45.1722 466.092 47.6585 464.725 50.0066C463.529 52.3548 461.821 54.4267 459.6 56.2223C457.55 57.8798 455.074 59.2611 452.17 60.3661C449.266 61.333 446.191 61.8165 442.945 61.8165H439.614L465.75 88.7512Z" fill="white"/>
<path d="M517.697 93.7237H478.237C477.212 93.7237 476.273 93.4475 475.419 92.895C474.735 92.3425 474.394 91.5828 474.394 90.6159C474.394 89.7871 474.735 89.0965 475.419 88.544C476.273 87.8534 477.212 87.508 478.237 87.508H517.697C522.651 87.508 527.263 86.7483 531.533 85.2289C535.975 83.7096 539.733 81.7067 542.808 79.2204C546.053 76.596 548.615 73.5572 550.495 70.1041C552.374 66.6509 553.313 62.9215 553.313 58.9158V58.2942C553.313 54.4267 552.374 50.7663 550.495 47.3131C548.615 43.7219 546.053 40.6831 542.808 38.1968C539.733 35.5724 535.975 33.5005 531.533 31.9811C527.263 30.4617 522.651 29.702 517.697 29.702H478.237C477.212 29.702 476.273 29.4257 475.419 28.8732C474.735 28.1826 474.394 27.3538 474.394 26.3869C474.394 25.5582 474.735 24.8676 475.419 24.315C476.273 23.6244 477.212 23.2791 478.237 23.2791H517.697C523.676 23.2791 529.227 24.246 534.352 26.1798C539.647 27.9754 544.26 30.4617 548.188 33.6386C552.117 36.8155 555.192 40.5449 557.413 44.8269C559.804 48.9707 561 53.4598 561 58.2942V58.9158C561 63.7502 559.804 68.3084 557.413 72.5903C555.192 76.7342 552.117 80.3945 548.188 83.5714C544.26 86.7483 539.647 89.2346 534.352 91.0303C529.227 92.8259 523.676 93.7237 517.697 93.7237Z" fill="white"/>
<path d="M346 63L363.321 93H328.679L346 63Z" fill="#EC6300"/>
<path d="M39 141L133 141" stroke="url(#paint0_linear_1_5)" stroke-width="5" stroke-linecap="round"/>
<path d="M561 141L456 141" stroke="url(#paint1_linear_1_5)" stroke-width="5" stroke-linecap="round"/>
<defs>
<linearGradient id="paint0_linear_1_5" x1="-81.0598" y1="141.98" x2="275.736" y2="134.794" gradientUnits="userSpaceOnUse">
<stop offset="0.342014" stop-color="#EC6300" stop-opacity="0"/>
<stop offset="0.555555" stop-color="#EC6300"/>
</linearGradient>
<linearGradient id="paint1_linear_1_5" x1="695.109" y1="140.02" x2="296.6" y2="148.985" gradientUnits="userSpaceOnUse">
<stop offset="0.342014" stop-color="#EC6300" stop-opacity="0"/>
<stop offset="0.555555" stop-color="#EC6300"/>
</linearGradient>
</defs>
</svg>
