<svg xmlns="http://www.w3.org/2000/svg" id="canvas" viewBox="181.912 568.731 871.190 162.821"><path d="M 215.88,592.64 C 215.11 593.30, 214.94 594.02, 214.47 595.85 C 214.00 597.69, 213.78 598.82, 213.52 601.82 C 213.26 604.81, 213.55 606.78, 213.17 610.82 C 212.80 614.85, 212.39 617.18, 211.65 622.00 C 210.90 626.81, 210.29 629.54, 209.46 634.91 C 208.62 640.27, 208.16 643.30, 207.47 648.82 C 206.79 654.33, 206.45 657.19, 206.01 662.47 C 205.58 667.76, 205.49 670.52, 205.32 675.25 C 205.15 679.98, 205.19 682.34, 205.18 686.12 C 205.17 689.91, 204.96 691.71, 205.27 694.17 C 205.57 696.64, 206.22 697.24, 206.71 698.43 C 207.20 699.62, 207.26 699.80, 207.71 700.13 C 208.15 700.47, 208.50 700.49, 208.93 700.10 C 209.36 699.72, 209.54 699.46, 209.84 698.20 C 210.15 696.94, 210.50 696.26, 210.47 693.82 C 210.43 691.37, 209.96 689.67, 209.68 685.96 C 209.41 682.26, 209.13 679.94, 209.09 675.30 C 209.05 670.65, 209.12 667.94, 209.48 662.74 C 209.84 657.53, 210.18 654.70, 210.89 649.25 C 211.60 643.81, 212.08 640.81, 213.05 635.51 C 214.02 630.21, 214.68 627.53, 215.72 622.75 C 216.77 617.98, 217.39 615.67, 218.28 611.62 C 219.17 607.56, 219.82 605.59, 220.17 602.47 C 220.51 599.35, 220.35 598.00, 219.99 596.01 C 219.63 594.03, 219.18 593.23, 218.36 592.55 C 217.54 591.88, 216.66 591.98, 215.88 592.64" style="stroke: black; fill: black;"/><path d="M 188.05,594.59 C 188.83 594.53, 188.89 594.24, 189.59 593.72 C 190.29 593.21, 190.40 592.97, 191.56 592.03 C 192.73 591.09, 193.33 590.50, 195.41 589.02 C 197.50 587.53, 198.72 586.31, 201.98 584.60 C 205.24 582.89, 207.42 581.93, 211.70 580.45 C 215.99 578.97, 218.63 578.13, 223.41 577.18 C 228.20 576.23, 230.89 575.88, 235.64 575.69 C 240.39 575.49, 242.97 575.58, 247.16 576.22 C 251.34 576.87, 253.47 577.52, 256.57 578.91 C 259.66 580.29, 260.93 581.22, 262.65 583.15 C 264.37 585.08, 264.91 586.01, 265.15 588.57 C 265.39 591.14, 265.24 592.71, 263.86 595.98 C 262.48 599.24, 261.28 601.23, 258.26 604.92 C 255.25 608.60, 252.94 610.79, 248.78 614.39 C 244.62 617.98, 241.78 619.94, 237.48 622.89 C 233.19 625.84, 230.61 627.00, 227.30 629.13 C 223.99 631.26, 222.28 631.98, 220.94 633.56 C 219.60 635.14, 219.80 636.06, 220.59 637.05 C 221.38 638.04, 222.49 638.51, 224.88 638.50 C 227.28 638.50, 228.91 637.70, 232.55 637.03 C 236.19 636.36, 238.71 635.57, 243.09 635.17 C 247.46 634.76, 250.14 634.60, 254.45 635.00 C 258.76 635.41, 261.17 635.91, 264.64 637.19 C 268.11 638.46, 269.74 639.41, 271.79 641.38 C 273.83 643.34, 274.40 644.33, 274.86 647.00 C 275.31 649.67, 275.26 651.22, 274.06 654.72 C 272.85 658.22, 271.78 660.40, 268.82 664.50 C 265.87 668.60, 263.67 671.08, 259.27 675.20 C 254.87 679.33, 252.02 681.65, 246.84 685.12 C 241.65 688.60, 238.67 690.18, 233.35 692.58 C 228.03 694.97, 225.09 695.88, 220.23 697.11 C 215.37 698.34, 212.97 698.67, 209.05 698.74 C 205.12 698.81, 203.35 698.42, 200.60 697.45 C 197.85 696.48, 196.84 695.60, 195.30 693.90 C 193.75 692.20, 193.30 691.42, 192.87 688.95 C 192.44 686.47, 192.38 684.84, 193.16 681.52 C 193.94 678.20, 194.47 676.15, 196.77 672.36 C 199.07 668.57, 201.32 666.11, 204.67 662.57 C 208.01 659.02, 210.39 657.35, 213.51 654.63 C 216.62 651.91, 219.17 650.50, 220.23 648.96 C 221.29 647.42, 220.64 646.42, 218.79 646.93 C 216.94 647.44, 214.43 648.97, 211.00 651.52 C 207.57 654.07, 205.22 655.96, 201.63 659.67 C 198.05 663.38, 195.69 665.92, 193.07 670.06 C 190.45 674.19, 189.59 676.38, 188.52 680.34 C 187.46 684.30, 187.13 686.45, 187.75 689.86 C 188.37 693.26, 189.32 695.00, 191.61 697.37 C 193.91 699.74, 195.72 700.68, 199.24 701.72 C 202.76 702.76, 204.84 702.83, 209.21 702.55 C 213.58 702.27, 216.01 701.76, 221.09 700.33 C 226.17 698.89, 229.13 697.91, 234.62 695.38 C 240.11 692.85, 243.16 691.23, 248.54 687.69 C 253.92 684.14, 256.86 681.84, 261.51 677.65 C 266.17 673.46, 268.53 671.05, 271.84 666.75 C 275.15 662.45, 276.56 660.26, 278.07 656.15 C 279.58 652.05, 279.99 649.84, 279.38 646.23 C 278.76 642.62, 277.64 640.74, 275.00 638.11 C 272.35 635.47, 270.18 634.56, 266.16 633.06 C 262.15 631.57, 259.58 631.21, 254.92 630.65 C 250.25 630.09, 247.50 630.19, 242.83 630.25 C 238.17 630.31, 235.42 630.43, 231.58 630.96 C 227.74 631.48, 225.78 631.89, 223.63 632.89 C 221.49 633.90, 220.96 635.23, 220.87 635.99 C 220.77 636.75, 221.38 637.31, 223.15 636.70 C 224.93 636.08, 226.43 635.04, 229.74 632.90 C 233.04 630.76, 235.38 629.12, 239.67 625.98 C 243.96 622.84, 246.87 620.90, 251.20 617.21 C 255.54 613.52, 257.99 611.40, 261.34 607.51 C 264.70 603.62, 266.27 601.65, 267.99 597.77 C 269.72 593.89, 270.32 591.66, 269.97 588.10 C 269.61 584.55, 268.55 582.64, 266.22 580.00 C 263.89 577.35, 262.01 576.42, 258.31 574.87 C 254.61 573.32, 252.29 572.86, 247.72 572.26 C 243.16 571.65, 240.49 571.65, 235.49 571.85 C 230.48 572.05, 227.71 572.41, 222.69 573.28 C 217.67 574.15, 214.96 574.93, 210.39 576.20 C 205.81 577.46, 203.61 578.27, 199.82 579.59 C 196.03 580.91, 194.10 581.24, 191.43 582.80 C 188.76 584.36, 187.76 585.62, 186.47 587.38 C 185.17 589.14, 185.10 590.25, 184.95 591.59 C 184.80 592.92, 185.10 593.46, 185.72 594.06 C 186.34 594.66, 187.28 594.66, 188.05 594.59" style="stroke: black; fill: black;"/><path d="M 287.57,639.31 C 286.71 639.72, 286.39 640.21, 285.60 641.77 C 284.81 643.32, 284.19 644.36, 283.63 647.09 C 283.07 649.83, 283.35 651.80, 282.80 655.44 C 282.25 659.08, 281.75 661.21, 280.89 665.29 C 280.03 669.38, 279.49 671.89, 278.49 675.86 C 277.50 679.84, 276.71 681.97, 275.91 685.16 C 275.11 688.36, 274.57 689.92, 274.50 691.85 C 274.43 693.79, 274.84 694.54, 275.56 694.83 C 276.27 695.11, 277.21 694.82, 278.06 693.26 C 278.90 691.71, 279.35 690.11, 279.78 687.06 C 280.21 684.00, 279.90 681.76, 280.22 678.00 C 280.55 674.25, 280.81 672.02, 281.39 668.30 C 281.96 664.58, 282.42 662.56, 283.09 659.40 C 283.76 656.24, 284.26 654.67, 284.72 652.51 C 285.19 650.35, 285.20 649.47, 285.41 648.60 C 285.62 647.74, 285.44 647.82, 285.75 648.18 C 286.06 648.54, 286.04 649.20, 286.95 650.40 C 287.87 651.60, 288.49 652.72, 290.35 654.16 C 292.22 655.61, 293.62 656.53, 296.28 657.63 C 298.94 658.73, 300.58 659.17, 303.66 659.65 C 306.75 660.13, 308.40 660.20, 311.69 660.03 C 314.98 659.87, 316.83 659.57, 320.11 658.84 C 323.39 658.11, 325.19 657.54, 328.09 656.38 C 330.99 655.21, 332.65 654.34, 334.60 653.02 C 336.55 651.70, 337.24 650.79, 337.84 649.79 C 338.44 648.80, 338.20 648.11, 337.60 648.05 C 337.00 647.99, 336.08 648.10, 334.86 649.50 C 333.63 650.91, 332.65 652.22, 331.49 655.08 C 330.33 657.94, 329.98 660.11, 329.04 663.80 C 328.10 667.49, 327.48 669.64, 326.78 673.52 C 326.07 677.40, 325.63 679.53, 325.52 683.20 C 325.41 686.87, 325.29 688.88, 326.23 691.88 C 327.17 694.88, 328.15 696.35, 330.22 698.19 C 332.28 700.04, 333.77 700.79, 336.54 701.12 C 339.32 701.45, 341.14 701.18, 344.10 699.85 C 347.06 698.52, 348.42 697.10, 351.34 694.48 C 354.26 691.86, 355.78 690.09, 358.70 686.74 C 361.61 683.39, 363.23 681.25, 365.90 677.73 C 368.57 674.21, 370.13 672.09, 372.04 669.14 C 373.96 666.19, 374.87 664.70, 375.47 662.97 C 376.07 661.24, 375.67 660.61, 375.05 660.48 C 374.42 660.35, 373.37 660.70, 372.33 662.32 C 371.29 663.93, 370.21 665.64, 369.84 668.56 C 369.47 671.47, 369.65 673.74, 370.49 676.90 C 371.33 680.06, 372.18 681.79, 374.03 684.34 C 375.88 686.89, 377.05 688.09, 379.76 689.64 C 382.47 691.20, 384.25 691.94, 387.58 692.11 C 390.91 692.29, 392.96 691.78, 396.40 690.51 C 399.84 689.24, 401.65 688.13, 404.79 685.75 C 407.92 683.37, 409.64 681.75, 412.06 678.62 C 414.48 675.48, 415.69 673.63, 416.89 670.09 C 418.10 666.55, 418.51 664.42, 418.08 660.93 C 417.65 657.43, 416.94 655.37, 414.74 652.61 C 412.55 649.85, 410.73 648.52, 407.09 647.13 C 403.45 645.73, 400.99 645.39, 396.56 645.62 C 392.13 645.85, 389.46 646.57, 384.94 648.28 C 380.42 649.98, 378.00 651.45, 373.95 654.13 C 369.90 656.80, 367.78 658.58, 364.69 661.67 C 361.60 664.76, 360.18 666.62, 358.48 669.58 C 356.79 672.55, 356.57 674.17, 356.23 676.48 C 355.88 678.80, 356.24 679.82, 356.75 681.15 C 357.26 682.48, 358.09 682.89, 358.77 683.12 C 359.45 683.35, 359.90 682.80, 360.15 682.31 C 360.40 681.81, 359.86 681.61, 360.04 680.67 C 360.21 679.72, 360.43 679.32, 361.02 677.60 C 361.61 675.88, 361.62 674.65, 362.99 672.07 C 364.36 669.49, 365.21 667.61, 367.86 664.71 C 370.51 661.81, 372.54 660.07, 376.25 657.58 C 379.96 655.09, 382.31 653.74, 386.41 652.27 C 390.51 650.80, 392.98 650.32, 396.75 650.22 C 400.52 650.12, 402.48 650.65, 405.25 651.78 C 408.03 652.91, 409.09 653.92, 410.60 655.87 C 412.12 657.82, 412.55 659.04, 412.82 661.54 C 413.10 664.05, 412.94 665.62, 411.98 668.40 C 411.01 671.18, 410.06 672.82, 407.99 675.44 C 405.92 678.05, 404.32 679.53, 401.62 681.48 C 398.92 683.43, 397.26 684.26, 394.51 685.17 C 391.76 686.09, 390.26 686.16, 387.88 686.06 C 385.51 685.95, 384.38 685.63, 382.64 684.63 C 380.90 683.63, 380.13 682.86, 379.19 681.04 C 378.24 679.22, 378.10 677.93, 377.93 675.54 C 377.75 673.15, 378.35 671.56, 378.32 669.08 C 378.28 666.59, 378.28 664.97, 377.74 663.10 C 377.20 661.23, 376.79 660.28, 375.63 659.73 C 374.46 659.19, 373.52 659.07, 371.91 660.36 C 370.30 661.65, 369.51 663.26, 367.56 666.18 C 365.60 669.10, 364.61 671.47, 362.12 674.95 C 359.64 678.42, 357.98 680.46, 355.13 683.55 C 352.28 686.63, 350.61 688.22, 347.87 690.37 C 345.14 692.51, 343.66 693.15, 341.46 694.28 C 339.25 695.41, 338.41 695.92, 336.84 696.00 C 335.28 696.07, 334.66 695.79, 333.63 694.66 C 332.61 693.52, 332.27 692.59, 331.72 690.33 C 331.17 688.06, 330.81 686.48, 330.86 683.32 C 330.92 680.17, 331.20 678.10, 331.98 674.56 C 332.75 671.02, 333.45 668.95, 334.75 665.63 C 336.06 662.31, 337.33 660.74, 338.49 657.98 C 339.66 655.22, 340.38 653.93, 340.58 651.84 C 340.78 649.76, 340.38 648.70, 339.51 647.57 C 338.64 646.43, 337.82 646.19, 336.24 646.16 C 334.66 646.12, 333.73 646.54, 331.60 647.39 C 329.48 648.25, 328.19 649.32, 325.62 650.43 C 323.04 651.55, 321.57 652.28, 318.74 652.96 C 315.92 653.65, 314.27 653.84, 311.51 653.86 C 308.74 653.88, 307.36 653.62, 304.90 653.06 C 302.45 652.50, 301.27 652.07, 299.24 651.06 C 297.20 650.04, 296.49 649.11, 294.73 647.99 C 292.96 646.87, 292.15 646.09, 290.42 645.44 C 288.70 644.79, 287.73 644.57, 286.10 644.74 C 284.48 644.90, 283.65 645.02, 282.28 646.24 C 280.91 647.46, 280.18 648.43, 279.26 650.84 C 278.33 653.26, 278.26 655.01, 277.64 658.32 C 277.02 661.63, 276.84 663.65, 276.16 667.42 C 275.47 671.18, 274.94 673.38, 274.21 677.16 C 273.47 680.93, 272.69 683.12, 272.48 686.30 C 272.26 689.47, 272.45 691.19, 273.14 693.03 C 273.82 694.87, 274.70 695.46, 275.89 695.51 C 277.08 695.55, 278.02 695.06, 279.09 693.26 C 280.17 691.46, 280.44 689.77, 281.27 686.51 C 282.09 683.25, 282.31 680.99, 283.21 676.98 C 284.10 672.96, 284.67 670.49, 285.74 666.44 C 286.81 662.39, 287.51 660.31, 288.56 656.72 C 289.61 653.12, 290.52 651.29, 291.00 648.48 C 291.49 645.68, 291.20 644.45, 290.98 642.69 C 290.76 640.93, 290.58 640.37, 289.90 639.69 C 289.22 639.02, 288.43 638.89, 287.57 639.31" style="stroke: black; fill: black;"/><path d="M 404.17,638.71 C 403.47 639.24, 403.29 639.65, 402.98 640.92 C 402.68 642.19, 402.60 643.05, 402.64 645.06 C 402.69 647.07, 402.85 648.28, 403.21 650.98 C 403.57 653.68, 404.03 655.24, 404.45 658.55 C 404.86 661.86, 404.91 663.87, 405.29 667.52 C 405.66 671.16, 405.86 673.21, 406.32 676.78 C 406.78 680.34, 406.84 682.23, 407.59 685.33 C 408.33 688.42, 408.72 690.00, 410.06 692.26 C 411.41 694.52, 412.30 695.64, 414.30 696.64 C 416.31 697.64, 417.73 697.77, 420.10 697.25 C 422.47 696.74, 423.96 695.98, 426.16 694.06 C 428.37 692.13, 429.16 690.58, 431.14 687.62 C 433.12 684.66, 434.11 682.70, 436.06 679.27 C 438.02 675.85, 439.12 673.72, 440.91 670.49 C 442.69 667.25, 443.83 665.68, 444.98 663.09 C 446.13 660.50, 446.51 659.16, 446.66 657.54 C 446.80 655.93, 446.40 655.14, 445.71 655.00 C 445.01 654.86, 444.13 655.41, 443.18 656.86 C 442.23 658.30, 441.62 659.58, 440.95 662.23 C 440.28 664.87, 440.28 666.80, 439.84 670.08 C 439.40 673.36, 439.01 675.48, 438.73 678.64 C 438.46 681.80, 438.13 683.39, 438.46 685.88 C 438.79 688.36, 439.16 689.61, 440.37 691.05 C 441.58 692.49, 442.61 693.05, 444.53 693.08 C 446.44 693.11, 447.86 692.75, 449.95 691.21 C 452.04 689.67, 452.92 688.11, 454.97 685.39 C 457.02 682.67, 457.98 680.74, 460.19 677.63 C 462.40 674.52, 463.70 672.68, 466.03 669.83 C 468.35 666.98, 469.77 665.61, 471.82 663.40 C 473.86 661.18, 474.94 660.21, 476.24 658.76 C 477.55 657.31, 477.90 656.62, 478.34 656.15 C 478.79 655.68, 478.57 655.65, 478.47 656.41 C 478.36 657.17, 477.92 657.90, 477.80 659.93 C 477.68 661.96, 477.77 663.48, 477.87 666.58 C 477.97 669.68, 478.13 671.74, 478.30 675.43 C 478.47 679.13, 478.33 681.33, 478.70 685.05 C 479.08 688.77, 479.10 690.91, 480.17 694.05 C 481.24 697.18, 482.06 698.65, 484.04 700.73 C 486.02 702.80, 487.28 703.65, 490.07 704.43 C 492.86 705.22, 494.64 705.40, 497.99 704.65 C 501.35 703.89, 503.54 702.45, 506.83 700.66 C 510.12 698.86, 512.01 697.69, 514.46 695.65 C 516.90 693.61, 518.45 691.90, 519.07 690.43 C 519.68 688.97, 519.11 688.23, 517.55 688.31 C 515.99 688.40, 514.00 689.48, 511.28 690.87 C 508.56 692.27, 506.92 693.72, 503.95 695.30 C 500.97 696.87, 498.94 697.92, 496.40 698.76 C 493.86 699.59, 492.95 699.77, 491.24 699.49 C 489.53 699.21, 488.98 698.78, 487.86 697.35 C 486.74 695.92, 486.36 694.89, 485.63 692.32 C 484.90 689.76, 484.50 687.92, 484.20 684.53 C 483.90 681.15, 484.02 679.00, 484.15 675.40 C 484.28 671.80, 484.78 669.79, 484.85 666.54 C 484.91 663.30, 485.10 661.63, 484.49 659.19 C 483.87 656.75, 483.17 655.62, 481.78 654.33 C 480.39 653.05, 479.35 652.69, 477.54 652.75 C 475.73 652.81, 474.74 653.29, 472.75 654.64 C 470.76 655.99, 469.75 657.14, 467.58 659.51 C 465.42 661.88, 464.27 663.54, 461.90 666.48 C 459.53 669.42, 458.16 671.25, 455.72 674.19 C 453.28 677.13, 451.77 678.73, 449.69 681.18 C 447.62 683.63, 446.54 684.78, 445.33 686.45 C 444.12 688.12, 443.97 688.92, 443.63 689.52 C 443.29 690.12, 443.48 690.19, 443.64 689.46 C 443.80 688.74, 444.09 687.90, 444.43 685.89 C 444.77 683.89, 444.87 682.36, 445.34 679.45 C 445.80 676.53, 446.05 674.47, 446.77 671.33 C 447.48 668.20, 448.53 666.53, 448.91 663.77 C 449.28 661.00, 449.21 659.41, 448.65 657.50 C 448.10 655.59, 447.32 654.62, 446.14 654.22 C 444.95 653.81, 444.09 654.25, 442.73 655.48 C 441.38 656.71, 440.70 657.86, 439.37 660.36 C 438.04 662.86, 437.69 664.74, 436.09 667.97 C 434.49 671.19, 433.36 673.27, 431.37 676.49 C 429.38 679.71, 428.12 681.51, 426.16 684.06 C 424.19 686.61, 423.12 687.55, 421.55 689.24 C 419.99 690.93, 419.36 691.74, 418.32 692.49 C 417.29 693.25, 417.03 693.54, 416.36 693.02 C 415.70 692.50, 415.61 691.70, 415.00 689.89 C 414.39 688.08, 413.96 686.73, 413.30 683.96 C 412.64 681.19, 412.21 679.41, 411.71 676.03 C 411.21 672.65, 411.02 670.64, 410.80 667.06 C 410.58 663.49, 410.61 661.51, 410.61 658.16 C 410.60 654.82, 410.91 653.13, 410.78 650.32 C 410.66 647.51, 410.47 646.17, 409.99 644.12 C 409.52 642.06, 409.11 641.20, 408.41 640.03 C 407.71 638.87, 407.33 638.54, 406.48 638.28 C 405.63 638.01, 404.87 638.18, 404.17 638.71" style="stroke: black; fill: black;"/><path d="M 579.20,596.95 C 578.47 597.61, 578.40 598.22, 577.95 600.12 C 577.50 602.01, 577.17 603.12, 576.94 606.44 C 576.70 609.77, 577.04 612.12, 576.76 616.72 C 576.48 621.33, 576.07 623.90, 575.52 629.47 C 574.97 635.05, 574.62 638.41, 574.00 644.60 C 573.38 650.79, 573.03 654.18, 572.43 660.44 C 571.83 666.70, 571.54 670.04, 571.01 675.88 C 570.47 681.72, 570.14 684.99, 569.75 689.64 C 569.37 694.30, 568.89 696.28, 569.09 699.16 C 569.28 702.04, 570.13 702.85, 570.72 704.03 C 571.31 705.22, 571.64 704.91, 572.03 705.07 C 572.43 705.23, 572.46 705.11, 572.71 704.83 C 572.96 704.56, 573.01 704.85, 573.28 703.69 C 573.56 702.53, 574.04 701.80, 574.09 699.03 C 574.13 696.25, 573.49 694.38, 573.51 689.80 C 573.53 685.23, 573.80 681.95, 574.19 676.14 C 574.58 670.32, 574.86 666.97, 575.46 660.73 C 576.06 654.49, 576.44 651.11, 577.18 644.95 C 577.92 638.79, 578.33 635.47, 579.16 629.93 C 580.00 624.39, 580.58 621.84, 581.35 617.25 C 582.13 612.67, 582.65 610.39, 583.03 607.01 C 583.42 603.63, 583.56 602.39, 583.28 600.34 C 582.99 598.30, 582.43 597.48, 581.62 596.80 C 580.80 596.12, 579.93 596.28, 579.20 596.95" style="stroke: black; fill: black;"/><path d="M 603.67,621.72 C 603.04 621.93, 603.04 621.75, 602.39 622.60 C 601.73 623.44, 600.96 623.80, 600.39 625.95 C 599.82 628.10, 600.02 629.75, 599.54 633.36 C 599.06 636.97, 598.79 639.30, 597.97 644.02 C 597.16 648.74, 596.46 651.61, 595.45 656.98 C 594.43 662.35, 593.84 665.32, 592.89 670.86 C 591.94 676.41, 591.40 679.52, 590.67 684.70 C 589.95 689.89, 589.66 692.64, 589.28 696.79 C 588.90 700.94, 588.73 702.72, 588.78 705.44 C 588.83 708.15, 589.07 708.99, 589.54 710.36 C 590.01 711.72, 590.64 711.96, 591.12 712.25 C 591.59 712.54, 591.83 711.89, 591.91 711.83 C 591.99 711.76, 591.42 711.88, 591.53 711.92 C 591.64 711.97, 592.08 712.42, 592.46 712.06 C 592.84 711.69, 593.14 711.44, 593.43 710.10 C 593.72 708.77, 593.92 708.01, 593.92 705.39 C 593.93 702.77, 593.39 701.07, 593.45 697.02 C 593.52 692.97, 593.68 690.26, 594.26 685.15 C 594.83 680.04, 595.35 676.95, 596.32 671.46 C 597.29 665.98, 597.90 663.04, 599.12 657.75 C 600.33 652.45, 601.10 649.63, 602.38 645.01 C 603.66 640.39, 604.47 638.17, 605.51 634.64 C 606.55 631.11, 607.29 629.66, 607.59 627.36 C 607.89 625.07, 607.42 624.32, 607.01 623.16 C 606.60 622.00, 606.20 621.87, 605.53 621.58 C 604.87 621.29, 604.30 621.52, 603.67 621.72" style="stroke: black; fill: black;"/><path d="M 556.46,665.28 C 556.91 665.69, 556.66 665.63, 557.34 665.91 C 558.03 666.18, 558.20 666.58, 559.87 666.67 C 561.53 666.77, 562.74 666.69, 565.65 666.38 C 568.57 666.07, 570.56 665.49, 574.44 665.12 C 578.32 664.75, 580.67 664.72, 585.07 664.52 C 589.47 664.32, 591.91 664.21, 596.45 664.13 C 600.98 664.05, 603.51 664.08, 607.77 664.11 C 612.02 664.14, 614.15 664.22, 617.71 664.28 C 621.27 664.33, 622.96 664.62, 625.57 664.40 C 628.19 664.19, 629.39 663.96, 630.78 663.21 C 632.16 662.47, 632.55 661.77, 632.51 660.68 C 632.47 659.59, 632.04 658.61, 630.56 657.77 C 629.08 656.93, 627.73 656.37, 625.10 656.48 C 622.46 656.59, 620.61 657.24, 617.40 658.32 C 614.19 659.39, 612.44 660.19, 609.06 661.85 C 605.68 663.51, 603.66 664.42, 600.51 666.61 C 597.37 668.81, 595.67 670.12, 593.32 672.81 C 590.98 675.49, 590.00 677.03, 588.80 680.05 C 587.60 683.07, 587.17 684.84, 587.32 687.91 C 587.46 690.98, 588.02 692.77, 589.51 695.39 C 591.00 698.02, 592.19 699.32, 594.77 701.02 C 597.36 702.72, 599.12 703.41, 602.44 703.89 C 605.76 704.36, 607.79 704.20, 611.37 703.40 C 614.95 702.61, 616.91 701.76, 620.32 699.90 C 623.73 698.04, 625.44 696.77, 628.44 694.09 C 631.43 691.42, 632.89 689.69, 635.30 686.53 C 637.70 683.38, 638.79 681.52, 640.48 678.32 C 642.17 675.12, 643.19 673.25, 643.74 670.54 C 644.30 667.82, 644.03 666.25, 643.26 664.75 C 642.48 663.24, 641.36 662.75, 639.86 663.01 C 638.36 663.27, 636.98 663.98, 635.77 666.05 C 634.55 668.12, 634.13 670.09, 633.78 673.36 C 633.42 676.63, 633.64 678.83, 633.98 682.40 C 634.31 685.98, 634.46 687.95, 635.44 691.24 C 636.43 694.53, 637.15 696.34, 638.90 698.85 C 640.64 701.36, 641.77 702.39, 644.17 703.79 C 646.57 705.18, 648.02 705.70, 650.91 705.83 C 653.80 705.95, 655.62 705.78, 658.64 704.42 C 661.65 703.07, 663.12 701.69, 666.00 699.05 C 668.87 696.40, 670.35 694.55, 673.01 691.19 C 675.68 687.82, 677.02 685.74, 679.32 682.20 C 681.61 678.67, 682.85 676.62, 684.50 673.52 C 686.15 670.42, 687.10 668.72, 687.58 666.71 C 688.06 664.71, 687.56 663.80, 686.90 663.48 C 686.23 663.15, 685.25 663.50, 684.25 665.09 C 683.25 666.69, 682.57 668.29, 681.90 671.45 C 681.24 674.62, 681.20 677.12, 680.93 680.91 C 680.66 684.70, 680.40 686.91, 680.53 690.39 C 680.66 693.87, 680.70 695.65, 681.56 698.32 C 682.42 701.00, 683.11 702.22, 684.82 703.77 C 686.53 705.31, 687.77 705.86, 690.10 706.03 C 692.43 706.21, 693.98 706.03, 696.48 704.64 C 698.98 703.25, 700.10 701.84, 702.58 699.09 C 705.06 696.34, 706.42 694.37, 708.88 690.89 C 711.34 687.40, 712.58 685.28, 714.90 681.68 C 717.22 678.07, 718.79 675.97, 720.49 672.84 C 722.19 669.72, 723.07 667.99, 723.41 666.06 C 723.76 664.13, 723.08 663.37, 722.20 663.19 C 721.33 663.01, 720.25 663.49, 719.05 665.17 C 717.84 666.85, 717.01 668.57, 716.17 671.60 C 715.34 674.64, 715.22 676.94, 714.86 680.35 C 714.49 683.75, 714.13 685.62, 714.34 688.64 C 714.55 691.66, 714.84 693.14, 715.89 695.45 C 716.93 697.75, 717.64 698.92, 719.56 700.15 C 721.48 701.38, 722.98 701.78, 725.48 701.60 C 727.98 701.42, 729.53 700.90, 732.08 699.24 C 734.63 697.59, 735.77 696.00, 738.23 693.34 C 740.68 690.69, 741.97 688.97, 744.38 685.96 C 746.78 682.95, 748.09 681.17, 750.26 678.30 C 752.43 675.44, 754.04 673.87, 755.22 671.62 C 756.40 669.37, 756.36 668.08, 756.17 667.07 C 755.97 666.06, 755.27 665.91, 754.26 666.57 C 753.25 667.24, 752.10 667.97, 751.11 670.38 C 750.12 672.78, 749.94 674.99, 749.31 678.59 C 748.68 682.18, 748.36 684.52, 747.93 688.36 C 747.50 692.21, 747.11 694.31, 747.17 697.82 C 747.22 701.32, 747.17 703.15, 748.19 705.89 C 749.21 708.64, 750.11 709.99, 752.26 711.56 C 754.41 713.13, 756.04 713.82, 758.95 713.74 C 761.86 713.66, 763.66 712.98, 766.82 711.17 C 769.98 709.37, 771.55 707.70, 774.75 704.72 C 777.95 701.74, 779.67 699.83, 782.83 696.27 C 785.99 692.70, 787.74 690.49, 790.55 686.89 C 793.37 683.30, 795.01 681.26, 796.91 678.30 C 798.81 675.34, 799.61 673.86, 800.05 672.10 C 800.49 670.34, 799.93 669.59, 799.11 669.50 C 798.29 669.40, 797.12 669.84, 795.95 671.62 C 794.79 673.39, 794.03 675.19, 793.28 678.38 C 792.53 681.56, 792.47 683.93, 792.22 687.56 C 791.97 691.20, 791.81 693.17, 792.02 696.56 C 792.23 699.95, 792.22 701.73, 793.28 704.52 C 794.34 707.31, 795.27 708.83, 797.31 710.52 C 799.35 712.22, 800.80 712.75, 803.50 713.00 C 806.21 713.24, 807.93 713.07, 810.82 711.74 C 813.71 710.41, 815.24 709.06, 817.96 706.34 C 820.69 703.61, 822.00 701.65, 824.46 698.11 C 826.93 694.57, 828.32 692.58, 830.27 688.65 C 832.22 684.71, 834.02 680.75, 834.21 678.44 C 834.40 676.13, 832.82 675.48, 831.24 677.10 C 829.66 678.71, 828.45 682.88, 826.31 686.51 C 824.17 690.13, 822.96 692.08, 820.53 695.23 C 818.09 698.38, 816.64 700.08, 814.14 702.24 C 811.64 704.41, 810.13 704.92, 808.03 706.03 C 805.92 707.15, 805.08 707.66, 803.60 707.82 C 802.12 707.98, 801.59 707.87, 800.62 706.85 C 799.66 705.83, 799.32 704.83, 798.78 702.73 C 798.24 700.62, 797.98 699.21, 797.94 696.33 C 797.90 693.44, 798.04 691.57, 798.59 688.30 C 799.13 685.02, 800.07 683.01, 800.66 679.96 C 801.25 676.91, 801.70 675.18, 801.54 673.05 C 801.37 670.91, 800.83 669.89, 799.83 669.27 C 798.84 668.64, 798.04 668.66, 796.58 669.90 C 795.12 671.14, 794.46 672.58, 792.55 675.45 C 790.64 678.31, 789.62 680.66, 787.03 684.23 C 784.43 687.80, 782.67 689.96, 779.57 693.32 C 776.46 696.68, 774.63 698.46, 771.51 701.03 C 768.40 703.60, 766.60 704.72, 763.99 706.19 C 761.39 707.65, 760.27 708.02, 758.48 708.36 C 756.69 708.69, 756.06 708.67, 755.03 707.86 C 754.01 707.05, 753.80 706.31, 753.35 704.30 C 752.90 702.29, 752.72 700.84, 752.77 697.81 C 752.82 694.79, 752.94 692.73, 753.59 689.19 C 754.23 685.64, 755.07 683.50, 756.01 680.10 C 756.95 676.69, 758.03 674.80, 758.29 672.16 C 758.56 669.53, 758.10 668.30, 757.32 666.92 C 756.54 665.54, 755.85 665.04, 754.40 665.26 C 752.95 665.48, 751.81 666.08, 750.07 668.03 C 748.32 669.98, 747.67 672.11, 745.69 675.01 C 743.71 677.90, 742.50 679.69, 740.15 682.50 C 737.79 685.31, 736.32 686.84, 733.92 689.07 C 731.53 691.30, 730.06 692.19, 728.17 693.65 C 726.27 695.11, 725.68 695.80, 724.44 696.36 C 723.21 696.92, 722.73 696.94, 722.01 696.43 C 721.29 695.92, 721.08 695.38, 720.85 693.81 C 720.62 692.24, 720.68 691.08, 720.85 688.60 C 721.03 686.11, 721.12 684.42, 721.72 681.38 C 722.33 678.33, 723.33 676.34, 723.87 673.38 C 724.42 670.41, 724.69 668.62, 724.44 666.55 C 724.20 664.48, 723.66 663.52, 722.65 663.01 C 721.65 662.50, 720.80 662.56, 719.41 663.99 C 718.02 665.43, 717.41 667.15, 715.69 670.17 C 713.97 673.19, 712.97 675.55, 710.80 679.09 C 708.62 682.62, 707.30 684.66, 704.79 687.83 C 702.28 691.01, 700.59 692.66, 698.25 694.97 C 695.91 697.29, 694.76 698.12, 693.10 699.40 C 691.45 700.69, 690.99 701.14, 689.97 701.41 C 688.94 701.69, 688.58 701.65, 687.99 700.77 C 687.40 699.88, 687.32 699.08, 687.01 696.99 C 686.71 694.90, 686.41 693.40, 686.47 690.33 C 686.52 687.25, 686.75 685.15, 687.29 681.61 C 687.83 678.08, 688.76 675.81, 689.14 672.66 C 689.53 669.50, 689.68 667.82, 689.22 665.84 C 688.75 663.86, 688.04 663.03, 686.84 662.75 C 685.64 662.47, 684.63 662.78, 683.21 664.43 C 681.78 666.08, 681.28 667.94, 679.69 670.98 C 678.10 674.02, 677.35 676.22, 675.26 679.64 C 673.16 683.07, 671.78 685.03, 669.22 688.10 C 666.65 691.17, 665.06 692.82, 662.44 694.98 C 659.82 697.13, 658.41 697.81, 656.11 698.87 C 653.82 699.93, 652.80 700.18, 650.96 700.27 C 649.11 700.35, 648.32 700.22, 646.89 699.29 C 645.47 698.37, 644.97 697.59, 643.84 695.65 C 642.71 693.72, 641.91 692.32, 641.23 689.62 C 640.54 686.92, 640.34 685.22, 640.40 682.14 C 640.46 679.06, 641.20 677.08, 641.53 674.23 C 641.85 671.37, 642.08 669.78, 642.03 667.87 C 641.97 665.97, 641.68 665.30, 641.24 664.71 C 640.80 664.11, 640.49 664.06, 639.81 664.89 C 639.13 665.72, 638.67 666.65, 637.83 668.86 C 636.99 671.07, 636.91 673.00, 635.61 675.95 C 634.31 678.89, 633.42 680.69, 631.33 683.58 C 629.24 686.47, 627.85 688.04, 625.16 690.38 C 622.48 692.73, 620.88 693.79, 617.90 695.29 C 614.91 696.78, 613.17 697.35, 610.25 697.86 C 607.34 698.37, 605.78 698.21, 603.33 697.84 C 600.87 697.47, 599.73 697.07, 597.97 696.00 C 596.21 694.93, 595.51 694.16, 594.52 692.49 C 593.52 690.83, 593.08 689.73, 593.00 687.66 C 592.92 685.60, 593.23 684.42, 594.12 682.16 C 595.01 679.90, 595.56 678.57, 597.44 676.35 C 599.32 674.12, 600.75 672.89, 603.53 671.04 C 606.31 669.19, 608.23 668.29, 611.36 667.09 C 614.49 665.90, 616.24 665.61, 619.17 665.08 C 622.10 664.56, 623.77 664.90, 626.01 664.45 C 628.26 664.00, 629.21 663.57, 630.38 662.82 C 631.55 662.08, 631.89 661.46, 631.86 660.72 C 631.84 659.98, 631.58 659.52, 630.26 659.12 C 628.95 658.71, 627.81 658.64, 625.28 658.69 C 622.75 658.75, 621.12 659.17, 617.61 659.38 C 614.10 659.59, 611.97 659.65, 607.73 659.75 C 603.49 659.84, 600.94 659.83, 596.39 659.86 C 591.85 659.90, 589.42 659.98, 585.00 659.91 C 580.59 659.85, 578.27 659.76, 574.32 659.55 C 570.37 659.35, 568.34 658.87, 565.26 658.88 C 562.18 658.89, 560.82 659.01, 558.91 659.58 C 557.00 660.16, 556.47 660.92, 555.70 661.77 C 554.94 662.62, 554.93 663.15, 555.08 663.85 C 555.23 664.55, 556.00 664.87, 556.46 665.28" style="stroke: black; fill: black;"/><path d="M 817.08,630.37 C 817.37 631.28, 817.85 631.83, 818.09 631.76 C 818.33 631.68, 818.47 630.94, 818.28 630.00 C 818.10 629.07, 817.52 627.97, 817.17 627.10 C 816.82 626.23, 816.66 625.65, 816.55 625.66 C 816.45 625.68, 816.56 626.23, 816.66 627.17 C 816.77 628.11, 816.80 629.45, 817.08 630.37" style="stroke: black; fill: black;"/><path d="M 845.02,623.96 C 844.13 624.61, 843.69 625.44, 843.02 627.52 C 842.36 629.59, 842.22 630.91, 841.68 634.35 C 841.15 637.79, 840.99 640.14, 840.33 644.71 C 839.68 649.28, 839.27 651.86, 838.41 657.19 C 837.55 662.52, 836.89 665.55, 836.05 671.37 C 835.22 677.19, 834.74 680.50, 834.24 686.29 C 833.74 692.08, 833.51 695.16, 833.55 700.31 C 833.58 705.47, 833.58 708.10, 834.41 712.08 C 835.24 716.06, 835.93 717.95, 837.70 720.23 C 839.47 722.50, 841.30 722.94, 843.25 723.46 C 845.20 723.97, 846.60 723.34, 847.46 722.80 C 848.31 722.26, 848.09 721.33, 847.52 720.75 C 846.94 720.16, 845.79 720.55, 844.59 719.88 C 843.40 719.20, 842.75 719.13, 841.53 717.39 C 840.30 715.64, 839.37 714.57, 838.49 711.14 C 837.61 707.71, 837.31 705.15, 837.12 700.24 C 836.93 695.32, 837.09 692.24, 837.55 686.57 C 838.00 680.89, 838.47 677.61, 839.38 671.87 C 840.29 666.13, 841.01 663.13, 842.10 657.87 C 843.20 652.61, 843.79 650.07, 844.87 645.58 C 845.94 641.09, 846.77 638.85, 847.48 635.41 C 848.20 631.96, 848.46 630.59, 848.46 628.37 C 848.46 626.14, 848.18 625.18, 847.50 624.30 C 846.81 623.42, 845.92 623.32, 845.02 623.96" style="stroke: black; fill: black;"/><path d="M 889.95,627.25 C 889.12 627.85, 888.79 628.51, 888.19 630.43 C 887.59 632.36, 887.36 633.60, 886.95 636.89 C 886.54 640.18, 886.58 642.35, 886.13 646.88 C 885.67 651.41, 885.37 654.21, 884.68 659.53 C 884.00 664.86, 883.47 667.82, 882.70 673.50 C 881.93 679.19, 881.45 682.38, 880.84 687.95 C 880.23 693.52, 879.92 696.45, 879.64 701.35 C 879.36 706.24, 879.07 708.73, 879.43 712.42 C 879.79 716.12, 880.14 717.87, 881.44 719.83 C 882.73 721.78, 883.96 722.28, 885.92 722.19 C 887.89 722.10, 889.45 721.54, 891.25 719.39 C 893.06 717.25, 893.67 715.15, 894.94 711.45 C 896.22 707.75, 896.69 705.27, 897.63 700.90 C 898.56 696.53, 899.12 694.03, 899.63 689.60 C 900.15 685.17, 900.32 682.82, 900.21 678.76 C 900.10 674.69, 899.94 672.63, 899.08 669.28 C 898.23 665.92, 897.58 664.26, 895.94 661.99 C 894.31 659.72, 893.02 658.83, 890.91 657.92 C 888.80 657.00, 887.28 656.86, 885.38 657.41 C 883.47 657.95, 882.27 658.88, 881.38 660.63 C 880.49 662.38, 880.17 663.98, 880.93 666.16 C 881.68 668.33, 882.66 669.86, 885.14 671.50 C 887.61 673.14, 889.63 673.59, 893.29 674.37 C 896.95 675.14, 899.17 675.20, 903.43 675.36 C 907.69 675.52, 910.20 675.42, 914.59 675.15 C 918.97 674.88, 921.36 674.59, 925.35 674.03 C 929.34 673.46, 931.43 673.24, 934.53 672.33 C 937.64 671.42, 939.13 670.79, 940.87 669.46 C 942.60 668.12, 943.13 667.12, 943.21 665.66 C 943.29 664.20, 942.73 663.10, 941.27 662.17 C 939.82 661.25, 938.36 660.78, 935.93 661.05 C 933.50 661.31, 931.80 661.94, 929.13 663.51 C 926.45 665.07, 925.07 666.45, 922.55 668.86 C 920.02 671.27, 918.59 672.62, 916.50 675.53 C 914.40 678.45, 913.31 680.16, 912.09 683.44 C 910.87 686.71, 910.35 688.61, 910.39 691.92 C 910.43 695.22, 910.84 697.10, 912.30 699.95 C 913.75 702.80, 914.97 704.30, 917.67 706.15 C 920.37 708.01, 922.30 708.64, 925.79 709.23 C 929.28 709.81, 931.42 709.73, 935.11 709.06 C 938.81 708.39, 940.88 707.60, 944.29 705.86 C 947.69 704.12, 949.48 702.93, 952.15 700.36 C 954.83 697.78, 956.13 696.16, 957.65 692.98 C 959.17 689.81, 959.71 687.84, 959.74 684.46 C 959.77 681.08, 959.26 679.16, 957.80 676.09 C 956.33 673.03, 955.01 671.48, 952.41 669.15 C 949.81 666.81, 948.01 665.83, 944.78 664.44 C 941.55 663.05, 939.54 662.54, 936.27 662.20 C 933.01 661.85, 931.08 661.92, 928.45 662.72 C 925.81 663.53, 924.45 664.44, 923.09 666.22 C 921.73 668.01, 921.33 669.50, 921.66 671.65 C 921.99 673.80, 922.62 675.26, 924.72 676.97 C 926.82 678.69, 928.57 679.38, 932.16 680.23 C 935.75 681.07, 938.13 681.12, 942.68 681.21 C 947.23 681.30, 949.91 680.99, 954.90 680.67 C 959.88 680.34, 962.69 680.02, 967.62 679.59 C 972.54 679.15, 975.24 678.78, 979.53 678.49 C 983.83 678.21, 985.99 678.12, 989.10 678.17 C 992.21 678.21, 993.39 678.25, 995.07 678.72 C 996.75 679.19, 997.09 679.46, 997.49 680.51 C 997.90 681.57, 997.62 682.27, 997.10 684.01 C 996.58 685.76, 995.89 686.91, 994.90 689.22 C 993.91 691.54, 992.79 693.12, 992.15 695.58 C 991.52 698.04, 991.30 699.68, 991.71 701.52 C 992.13 703.36, 992.63 704.27, 994.22 704.77 C 995.81 705.28, 997.17 705.40, 999.67 704.04 C 1002.17 702.68, 1003.53 700.63, 1006.72 697.96 C 1009.91 695.29, 1011.94 693.34, 1015.61 690.70 C 1019.29 688.06, 1021.52 686.65, 1025.10 684.74 C 1028.68 682.83, 1030.67 682.04, 1033.52 681.14 C 1036.36 680.24, 1037.49 680.13, 1039.33 680.24 C 1041.17 680.36, 1041.81 680.70, 1042.72 681.72 C 1043.63 682.75, 1043.64 683.35, 1043.87 685.38 C 1044.10 687.40, 1044.03 688.78, 1043.87 691.84 C 1043.72 694.91, 1043.54 696.99, 1043.09 700.70 C 1042.65 704.41, 1042.06 706.72, 1041.65 710.40 C 1041.24 714.08, 1040.85 716.11, 1041.03 719.09 C 1041.22 722.07, 1041.78 723.45, 1042.56 725.29 C 1043.34 727.14, 1044.14 727.85, 1044.96 728.33 C 1045.78 728.81, 1046.30 728.47, 1046.65 727.70 C 1047.01 726.94, 1046.65 726.24, 1046.75 724.49 C 1046.85 722.75, 1047.07 721.70, 1047.15 718.99 C 1047.23 716.27, 1046.85 714.45, 1047.15 710.94 C 1047.45 707.43, 1048.09 705.20, 1048.65 701.45 C 1049.22 697.69, 1049.79 695.61, 1049.96 692.15 C 1050.13 688.69, 1050.30 686.90, 1049.50 684.15 C 1048.69 681.41, 1047.86 680.17, 1045.94 678.43 C 1044.01 676.69, 1042.66 675.86, 1039.88 675.46 C 1037.09 675.05, 1035.42 675.34, 1032.03 676.39 C 1028.64 677.44, 1026.77 678.65, 1022.94 680.72 C 1019.12 682.78, 1016.86 684.19, 1012.91 686.71 C 1008.96 689.23, 1006.63 690.94, 1003.19 693.32 C 999.75 695.71, 997.59 696.78, 995.70 698.63 C 993.82 700.47, 993.73 701.75, 993.78 702.57 C 993.83 703.38, 994.81 703.50, 995.95 702.69 C 997.10 701.88, 998.28 700.74, 999.51 698.51 C 1000.74 696.29, 1001.40 694.38, 1002.09 691.58 C 1002.78 688.77, 1003.12 687.11, 1002.96 684.49 C 1002.79 681.87, 1002.54 680.47, 1001.28 678.46 C 1000.02 676.44, 999.07 675.44, 996.64 674.41 C 994.21 673.38, 992.64 673.32, 989.15 673.31 C 985.65 673.29, 983.55 673.85, 979.17 674.32 C 974.79 674.79, 972.16 675.21, 967.27 675.66 C 962.37 676.10, 959.56 676.38, 954.70 676.53 C 949.84 676.68, 947.17 676.82, 942.96 676.39 C 938.76 675.96, 936.68 675.26, 933.68 674.39 C 930.69 673.52, 929.60 672.78, 927.99 672.03 C 926.39 671.29, 925.99 671.20, 925.66 670.67 C 925.32 670.13, 925.50 669.80, 926.31 669.35 C 927.12 668.91, 927.84 668.63, 929.70 668.45 C 931.56 668.27, 933.03 668.17, 935.59 668.46 C 938.16 668.75, 939.94 668.89, 942.53 669.89 C 945.13 670.90, 946.56 671.74, 948.58 673.49 C 950.60 675.24, 951.53 676.43, 952.63 678.62 C 953.74 680.81, 954.09 682.05, 954.11 684.45 C 954.13 686.86, 953.85 688.23, 952.72 690.65 C 951.59 693.06, 950.63 694.43, 948.46 696.52 C 946.29 698.61, 944.74 699.68, 941.88 701.09 C 939.03 702.51, 937.20 703.12, 934.18 703.61 C 931.16 704.09, 929.41 703.98, 926.77 703.51 C 924.13 703.03, 922.86 702.46, 920.98 701.24 C 919.10 700.01, 918.32 699.24, 917.38 697.37 C 916.44 695.50, 916.27 694.27, 916.29 691.89 C 916.30 689.51, 916.49 688.02, 917.46 685.45 C 918.44 682.88, 919.31 681.36, 921.16 679.02 C 923.00 676.68, 924.32 675.48, 926.68 673.76 C 929.04 672.03, 930.71 671.59, 932.96 670.42 C 935.20 669.25, 936.36 668.80, 937.91 667.92 C 939.46 667.04, 940.07 666.64, 940.72 666.02 C 941.36 665.40, 941.55 665.01, 941.13 664.83 C 940.70 664.65, 940.22 664.67, 938.59 665.11 C 936.95 665.54, 935.75 666.16, 932.95 667.00 C 930.15 667.84, 928.30 668.60, 924.58 669.30 C 920.86 670.00, 918.49 670.30, 914.33 670.49 C 910.17 670.69, 907.68 670.70, 903.78 670.29 C 899.87 669.89, 897.82 669.42, 894.80 668.47 C 891.79 667.53, 890.52 666.53, 888.69 665.59 C 886.86 664.64, 886.30 664.34, 885.65 663.76 C 885.00 663.17, 885.28 663.02, 885.44 662.65 C 885.60 662.28, 885.78 661.98, 886.45 661.91 C 887.11 661.85, 887.74 661.70, 888.76 662.31 C 889.78 662.93, 890.49 663.34, 891.55 665.00 C 892.61 666.67, 893.26 667.84, 894.07 670.63 C 894.88 673.42, 895.38 675.27, 895.60 678.95 C 895.81 682.63, 895.72 684.89, 895.16 689.04 C 894.60 693.19, 893.96 695.63, 892.79 699.69 C 891.63 703.76, 890.65 706.07, 889.34 709.38 C 888.03 712.70, 887.02 714.23, 886.22 716.27 C 885.43 718.30, 885.60 719.17, 885.36 719.56 C 885.12 719.95, 885.30 719.72, 885.02 718.20 C 884.75 716.69, 884.32 715.32, 883.99 711.98 C 883.66 708.63, 883.33 706.21, 883.37 701.47 C 883.42 696.74, 883.68 693.80, 884.23 688.31 C 884.77 682.81, 885.26 679.63, 886.11 673.99 C 886.96 668.35, 887.54 665.39, 888.48 660.11 C 889.43 654.83, 889.91 652.06, 890.82 647.59 C 891.73 643.12, 892.48 641.09, 893.04 637.79 C 893.59 634.48, 893.75 633.14, 893.61 631.06 C 893.48 628.99, 893.10 628.19, 892.36 627.43 C 891.63 626.67, 890.78 626.65, 889.95 627.25" style="stroke: black; fill: black;"/></svg>