<svg width="2314" height="68" viewBox="0 0 2314 68" fill="none" xmlns="http://www.w3.org/2000/svg">
<g clip-path="url(#clip0_2_6)">
<path fill-rule="evenodd" clip-rule="evenodd" d="M2309.84 26.774C2309.38 26.052 2309.02 28.425 2309.01 32.25C2309.01 35.963 2309.44 39 2309.97 39C2311.12 39 2311.01 28.614 2309.84 26.774ZM2298.69 28.155C2296.62 26.443 2251.96 26.466 2250.84 28.18C2250.37 28.906 2250.1 31.525 2250.24 34L2250.5 38.5L2274.43 38.769C2292.91 38.976 2298.54 38.748 2299.16 37.769C2300.44 35.751 2300.13 29.35 2298.69 28.155ZM2242.18 31.513C2241.73 26.024 2246.92 26.432 2174.77 26.208C2109.97 26.006 1952.66 24.856 1743.5 23.054C1683.55 22.537 1601.42 22.091 1561 22.061C1520.58 22.032 1444.53 21.566 1392 21.026C1230.47 19.364 1119.33 19.072 1118.09 20.305C1116.38 22.021 1116.65 41.468 1118.42 42.93C1119.5 43.829 1180.68 43.854 1379.17 43.037C1521.8 42.45 1770.12 41.549 1931 41.034C2091.88 40.519 2227.62 39.812 2232.66 39.462C2242.77 38.761 2242.77 38.767 2242.18 31.513ZM1109.25 19.681C1108.84 19.441 1083.75 19.077 1053.5 18.872L998.5 18.5L998.221 31.789L997.941 45.079L1048.72 44.596C1076.65 44.331 1101.86 44.088 1104.75 44.057L1110 44V32.059C1110 25.491 1109.66 19.922 1109.25 19.681ZM905 17.937C888.775 17.734 872.8 17.514 869.5 17.45C727.24 14.655 322.75 12.198 306.5 14.03C302.253 14.508 301.572 14.749 304.168 14.853C310.929 15.124 310.99 15.221 311.1 25.857C311.255 40.876 312.388 42.089 313.729 28.672C314.372 22.238 315.173 16.53 315.508 15.986C315.898 15.356 325.599 15.179 342.309 15.497C407.961 16.747 609.424 18.69 791.487 19.83C885.489 20.419 898.499 20.682 898.679 22C898.792 22.825 899.214 28 899.616 33.5C900.421 44.507 901.451 41.897 902.181 27L902.5 20.5L918.5 19.404L934.5 18.307L905 17.937ZM380.5 61.405C371.7 61.406 368.234 61.559 372.797 61.745C377.361 61.93 384.561 61.929 388.797 61.742C393.034 61.555 389.3 61.404 380.5 61.405ZM213.774 13.498C213.073 13.247 186.85 12.919 155.5 12.77L98.5 12.5L98.2271 30.258L97.9541 48.016L156.227 47.758L214.5 47.5L214.774 30.728C214.985 17.847 214.753 13.85 213.774 13.498ZM87.1311 18.554L86.499 15.609L85.25 18.352C83.6121 21.945 83.7019 34.835 85.385 37.87C87.6079 41.879 88.9502 27.03 87.1311 18.554ZM64 63.411C54.375 63.411 50.437 63.561 55.25 63.745C60.062 63.928 67.937 63.928 72.75 63.745C77.562 63.561 73.625 63.411 64 63.411ZM45 3.32C41.425 3.32 39.9629 3.502 41.75 3.723C43.5371 3.945 46.4629 3.945 48.25 3.723C50.0371 3.502 48.575 3.32 45 3.32ZM41.1399 15.586C40.6658 15.294 39.9932 17.793 39.6431 21.14C38.897 28.279 39.9001 41.18 41.1411 40.413C42.2632 39.719 42.262 16.28 41.1399 15.586ZM29.28 13.25C28.7219 11.687 22.9241 11.622 19.5911 13.14C12.52 16.362 9.30591 33.999 13.74 45.25L15.217 49H21.9919C27.9619 49 28.8301 48.759 29.2981 46.967C29.9351 44.533 29.9189 15.037 29.28 13.25ZM2350 -55V-35H2330V-55H2350ZM2350 375V395H2330V375H2350Z" fill="#F7F7F7"/>
<path fill-rule="evenodd" clip-rule="evenodd" d="M2308.04 24C2307.47 24 2307 23.325 2307 22.5C2307 21.675 2306.19 21 2305.2 21C2304.21 21 2302.96 20.558 2302.42 20.019C2301.81 19.415 2282.39 18.873 2251.97 18.61C2224.76 18.374 2200.25 17.939 2197.5 17.643C2194.75 17.346 2130.04 17.071 2053.7 17.031C1963.39 16.984 1915.12 16.617 1915.51 15.979C1915.91 15.342 1861.15 15 1758.62 15C1654.7 15 1600.91 14.66 1600.5 14C1600.09 13.34 1547.3 13 1445.38 13C1344.89 13 1290.22 12.652 1289.01 12.006C1287.8 11.359 1231.23 11.006 1127.13 10.994C1022.84 10.982 966.891 10.632 966.493 9.988C966.157 9.445 965.432 9 964.882 9C964.332 9 964.22 9.563 964.633 10.25C965.228 11.241 965.071 11.246 963.871 10.276C962.694 9.324 930.888 9.043 820.711 9.013C718.849 8.986 678.283 8.661 676.282 7.859C674.295 7.061 623.327 6.54 497.918 6.034C401.348 5.644 321.883 5.046 321.33 4.704C320.604 4.255 51.825 3.583 21.9619 3.956C15.5479 4.036 5.95996 15.02 4.70508 23.724C4.52905 24.948 4.073 26.26 3.69189 26.641C0.486816 29.846 4.53003 48.291 10.1331 56.025C13.2261 60.295 18.3801 63 23.4221 63C25.1702 63 27.085 63.485 27.677 64.077C28.385 64.785 31.792 64.934 37.627 64.513C46.561 63.868 89.4531 63.489 265 62.503C317.525 62.208 383.9 61.77 412.5 61.529C441.1 61.288 510.4 60.872 566.5 60.603C884.018 59.082 1024.9 57.989 1027.43 57.027C1029.23 56.342 1077.84 56 1173.62 56C1269.03 56 1316.91 55.665 1316.5 55C1316.09 54.335 1368.51 54 1473 54C1577.49 54 1629.91 53.665 1629.5 53C1629.09 52.335 1681.51 52 1786 52C1887.28 52 1942.9 51.655 1942.52 51.03C1942.13 50.404 1999.02 50.044 2102.55 50.015C2206.05 49.987 2263.84 49.62 2265.03 48.985C2266.04 48.443 2274.31 48 2283.41 48C2299.01 48 2300.19 47.864 2304.22 45.6L2308.5 43.201L2308.79 33.6C2308.97 27.459 2308.7 24 2308.04 24ZM2299.16 37.769C2298.54 38.748 2292.91 38.976 2274.43 38.769L2250.5 38.5L2250.24 34C2250.1 31.525 2250.37 28.906 2250.84 28.18C2251.96 26.466 2296.62 26.443 2298.69 28.155C2300.13 29.35 2300.44 35.751 2299.16 37.769ZM2232.66 39.462C2227.62 39.812 2091.88 40.519 1931 41.034C1770.12 41.549 1521.8 42.45 1379.17 43.037C1180.68 43.854 1119.5 43.829 1118.42 42.93C1116.65 41.468 1116.38 22.021 1118.09 20.305C1119.33 19.072 1230.47 19.364 1392 21.026C1444.53 21.566 1520.58 22.032 1561 22.061C1601.42 22.091 1683.55 22.537 1743.5 23.054C1952.66 24.856 2109.97 26.006 2174.77 26.208C2246.92 26.432 2241.73 26.024 2242.18 31.513C2242.77 38.767 2242.77 38.761 2232.66 39.462ZM1104.75 44.057C1101.86 44.088 1076.65 44.331 1048.72 44.596L997.941 45.079L998.221 31.789L998.5 18.5L1053.5 18.872C1083.75 19.077 1108.84 19.441 1109.25 19.681C1109.66 19.922 1110 25.491 1110 32.059V44L1104.75 44.057ZM902.181 27C901.451 41.897 900.421 44.507 899.616 33.5C899.214 28 898.792 22.825 898.679 22C898.499 20.682 885.489 20.419 791.487 19.83C609.424 18.69 407.961 16.747 342.309 15.497C325.599 15.179 315.898 15.356 315.508 15.986C315.173 16.53 314.372 22.238 313.729 28.672C312.388 42.089 311.255 40.876 311.1 25.857C310.99 15.221 310.929 15.124 304.168 14.853C301.572 14.749 302.253 14.508 306.5 14.03C322.75 12.198 727.24 14.655 869.5 17.45C872.8 17.514 888.775 17.734 905 17.937L934.5 18.307L918.5 19.404L902.5 20.5L902.181 27ZM156.227 47.758L97.9541 48.016L98.2271 30.258L98.5 12.5L155.5 12.77C186.85 12.919 213.073 13.247 213.774 13.498C214.753 13.85 214.985 17.847 214.774 30.728L214.5 47.5L156.227 47.758ZM87.3391 36.37C86.7092 40.181 86.679 40.204 85.385 37.87C83.7019 34.835 83.6121 21.945 85.25 18.352L86.499 15.609L87.1311 18.554C88.0022 22.614 88.1082 31.711 87.3391 36.37ZM41.1411 40.413C39.9001 41.18 38.897 28.279 39.6431 21.14C39.9932 17.793 40.6658 15.294 41.1399 15.586C42.262 16.28 42.2632 39.719 41.1411 40.413ZM29.2981 46.967C28.8301 48.759 27.9619 49 21.9919 49H15.217L13.74 45.25C9.30591 33.999 12.52 16.362 19.5911 13.14C22.9241 11.622 28.7219 11.687 29.28 13.25C29.9189 15.037 29.9351 44.533 29.2981 46.967ZM2350 -55V-35H2330V-55H2350ZM2350 375V395H2330V375H2350Z" fill="#363636"/>
</g>
<defs>
<clipPath id="clip0_2_6">
<rect width="68" height="2314" fill="white" transform="matrix(0 1 -1 0 2314 0)"/>
</clipPath>
</defs>
</svg>
