<svg width="34" height="1157" viewBox="0 0 68 2314" fill="none" xmlns="http://www.w3.org/2000/svg">
<g clip-path="url(#clip0_2_6)">
<path fill-rule="evenodd" clip-rule="evenodd" d="M26.774 4.161C26.052 4.619 28.425 4.976 32.25 4.985C35.963 4.993 39 4.564 39 4.032C39 2.884 28.614 2.993 26.774 4.161ZM28.155 15.313C26.443 17.376 26.466 62.038 28.18 63.158C28.906 63.633 31.525 63.904 34 63.761L38.5 63.5L38.769 39.57C38.976 21.094 38.748 15.457 37.769 14.836C35.751 13.555 29.35 13.873 28.155 15.313ZM31.513 71.824C26.024 72.271 26.432 67.083 26.208 139.227C26.006 204.027 24.856 361.343 23.054 570.5C22.537 630.45 22.091 712.575 22.061 753C22.032 793.425 21.566 869.475 21.026 922C19.364 1083.52 19.072 1194.67 20.305 1195.91C22.021 1197.62 41.468 1197.35 42.93 1195.58C43.829 1194.5 43.854 1133.32 43.037 934.834C42.45 792.2 41.549 543.875 41.034 383C40.519 222.125 39.812 86.38 39.462 81.344C38.761 71.226 38.767 71.234 31.513 71.824ZM19.681 1204.75C19.441 1205.16 19.077 1230.25 18.872 1260.5L18.5 1315.5L31.789 1315.78L45.079 1316.06L44.596 1265.28C44.331 1237.35 44.088 1212.14 44.057 1209.25L44 1204H32.059C25.491 1204 19.922 1204.34 19.681 1204.75ZM17.937 1409C17.734 1425.23 17.514 1441.2 17.45 1444.5C14.655 1586.76 12.198 1991.25 14.03 2007.5C14.508 2011.75 14.749 2012.43 14.853 2009.83C15.124 2003.07 15.221 2003.01 25.857 2002.9C40.876 2002.75 42.089 2001.61 28.672 2000.27C22.238 1999.63 16.53 1998.83 15.986 1998.49C15.356 1998.1 15.179 1988.4 15.497 1971.69C16.747 1906.04 18.69 1704.58 19.83 1522.51C20.419 1428.51 20.682 1415.5 22 1415.32C22.825 1415.21 28 1414.79 33.5 1414.38C44.507 1413.58 41.897 1412.55 27 1411.82L20.5 1411.5L19.404 1395.5L18.307 1379.5L17.937 1409ZM61.405 1933.5C61.406 1942.3 61.559 1945.77 61.745 1941.2C61.93 1936.64 61.929 1929.44 61.742 1925.2C61.555 1920.97 61.404 1924.7 61.405 1933.5ZM13.498 2100.23C13.247 2100.93 12.919 2127.15 12.77 2158.5L12.5 2215.5L30.258 2215.77L48.016 2216.05L47.758 2157.77L47.5 2099.5L30.728 2099.23C17.847 2099.02 13.85 2099.25 13.498 2100.23ZM18.554 2226.87L15.609 2227.5L18.352 2228.75C21.945 2230.39 34.835 2230.3 37.87 2228.61C41.879 2226.39 27.03 2225.05 18.554 2226.87ZM63.411 2250C63.411 2259.62 63.561 2263.56 63.745 2258.75C63.928 2253.94 63.928 2246.06 63.745 2241.25C63.561 2236.44 63.411 2240.38 63.411 2250ZM3.32 2269C3.32 2272.58 3.502 2274.04 3.723 2272.25C3.945 2270.46 3.945 2267.54 3.723 2265.75C3.502 2263.96 3.32 2265.42 3.32 2269ZM15.586 2272.86C15.294 2273.33 17.793 2274.01 21.14 2274.36C28.279 2275.1 41.18 2274.1 40.413 2272.86C39.719 2271.74 16.28 2271.74 15.586 2272.86ZM13.25 2284.72C11.687 2285.28 11.622 2291.08 13.14 2294.41C16.362 2301.48 33.999 2304.69 45.25 2300.26L49 2298.78V2292.01C49 2286.04 48.759 2285.17 46.967 2284.7C44.533 2284.06 15.037 2284.08 13.25 2284.72ZM-55 -36H-35V-16H-55V-36ZM375 -36H395V-16H375V-36Z" fill="#F7F7F7"/>
<path fill-rule="evenodd" clip-rule="evenodd" d="M24 5.964C24 6.534 23.325 7 22.5 7C21.675 7 21 7.81 21 8.8C21 9.79 20.558 11.042 20.019 11.581C19.415 12.185 18.873 31.61 18.61 62.031C18.374 89.239 17.939 113.75 17.643 116.5C17.346 119.25 17.071 183.958 17.031 260.296C16.984 350.608 16.617 398.881 15.979 398.487C15.342 398.093 15 452.845 15 555.382C15 659.303 14.66 713.092 14 713.5C13.34 713.908 13 766.699 13 868.625C13 969.106 12.652 1023.78 12.006 1024.99C11.359 1026.2 11.006 1082.77 10.994 1186.87C10.982 1291.16 10.632 1347.11 9.988 1347.51C9.445 1347.84 9 1348.57 9 1349.12C9 1349.67 9.563 1349.78 10.25 1349.37C11.241 1348.77 11.246 1348.93 10.276 1350.13C9.324 1351.31 9.043 1383.11 9.013 1493.29C8.986 1595.15 8.661 1635.72 7.859 1637.72C7.061 1639.71 6.54 1690.67 6.034 1816.08C5.644 1912.65 5.046 1992.12 4.704 1992.67C4.255 1993.4 3.583 2262.18 3.956 2292.04C4.036 2298.45 15.02 2308.04 23.724 2309.29C24.948 2309.47 26.26 2309.93 26.641 2310.31C29.846 2313.51 48.291 2309.47 56.025 2303.87C60.295 2300.77 63 2295.62 63 2290.58C63 2288.83 63.485 2286.91 64.077 2286.32C64.785 2285.61 64.934 2282.21 64.513 2276.37C63.868 2267.44 63.489 2224.55 62.503 2049C62.208 1996.47 61.77 1930.1 61.529 1901.5C61.288 1872.9 60.872 1803.6 60.603 1747.5C59.082 1429.98 57.989 1289.1 57.027 1286.57C56.342 1284.77 56 1236.16 56 1140.38C56 1044.97 55.665 997.089 55 997.5C54.335 997.911 54 945.491 54 841C54 736.509 53.665 684.089 53 684.5C52.335 684.911 52 632.491 52 528C52 426.724 51.655 371.095 51.03 371.482C50.404 371.868 50.044 314.984 50.015 211.448C49.987 107.947 49.62 50.159 48.985 48.973C48.443 47.96 48 39.689 48 30.593C48 14.991 47.864 13.811 45.6 9.777L43.201 5.5L33.6 5.214C27.459 5.031 24 5.301 24 5.964ZM37.769 14.836C38.748 15.457 38.976 21.094 38.769 39.57L38.5 63.5L34 63.761C31.525 63.904 28.906 63.633 28.18 63.158C26.466 62.038 26.443 17.376 28.155 15.313C29.35 13.873 35.751 13.555 37.769 14.836ZM39.462 81.344C39.812 86.38 40.519 222.125 41.034 383C41.549 543.875 42.45 792.2 43.037 934.834C43.854 1133.32 43.829 1194.5 42.93 1195.58C41.468 1197.35 22.021 1197.62 20.305 1195.91C19.072 1194.67 19.364 1083.52 21.026 922C21.566 869.475 22.032 793.425 22.061 753C22.091 712.575 22.537 630.45 23.054 570.5C24.856 361.343 26.006 204.027 26.208 139.227C26.432 67.083 26.024 72.271 31.513 71.824C38.767 71.234 38.761 71.226 39.462 81.344ZM44.057 1209.25C44.088 1212.14 44.331 1237.35 44.596 1265.28L45.079 1316.06L31.789 1315.78L18.5 1315.5L18.872 1260.5C19.077 1230.25 19.441 1205.16 19.681 1204.75C19.922 1204.34 25.491 1204 32.059 1204H44L44.057 1209.25ZM27 1411.82C41.897 1412.55 44.507 1413.58 33.5 1414.38C28 1414.79 22.825 1415.21 22 1415.32C20.682 1415.5 20.419 1428.51 19.83 1522.51C18.69 1704.58 16.747 1906.04 15.497 1971.69C15.179 1988.4 15.356 1998.1 15.986 1998.49C16.53 1998.83 22.238 1999.63 28.672 2000.27C42.089 2001.61 40.876 2002.75 25.857 2002.9C15.221 2003.01 15.124 2003.07 14.853 2009.83C14.749 2012.43 14.508 2011.75 14.03 2007.5C12.198 1991.25 14.655 1586.76 17.45 1444.5C17.514 1441.2 17.734 1425.23 17.937 1409L18.307 1379.5L19.404 1395.5L20.5 1411.5L27 1411.82ZM47.758 2157.77L48.016 2216.05L30.258 2215.77L12.5 2215.5L12.77 2158.5C12.919 2127.15 13.247 2100.93 13.498 2100.23C13.85 2099.25 17.847 2099.02 30.728 2099.23L47.5 2099.5L47.758 2157.77ZM36.37 2226.66C40.181 2227.29 40.204 2227.32 37.87 2228.61C34.835 2230.3 21.945 2230.39 18.352 2228.75L15.609 2227.5L18.554 2226.87C22.614 2226 31.711 2225.89 36.37 2226.66ZM40.413 2272.86C41.18 2274.1 28.279 2275.1 21.14 2274.36C17.793 2274.01 15.294 2273.33 15.586 2272.86C16.28 2271.74 39.719 2271.74 40.413 2272.86ZM46.967 2284.7C48.759 2285.17 49 2286.04 49 2292.01V2298.78L45.25 2300.26C33.999 2304.69 16.362 2301.48 13.14 2294.41C11.622 2291.08 11.687 2285.28 13.25 2284.72C15.037 2284.08 44.533 2284.06 46.967 2284.7ZM-55 -36H-35V-16H-55V-36ZM375 -36H395V-16H375V-36Z" fill="#363636"/>
</g>
<defs>
<clipPath id="clip0_2_6">
<rect width="68" height="2314" fill="white"/>
</clipPath>
</defs>
</svg>
