<svg width="2314" height="68" viewBox="0 0 2314 68" fill="none" xmlns="http://www.w3.org/2000/svg">
<g clip-path="url(#clip0_2_6)">
<path fill-rule="evenodd" clip-rule="evenodd" d="M4.161 41.226C4.619 41.948 4.976 39.575 4.985 35.75C4.993 32.037 4.564 29 4.032 29C2.884 29 2.993 39.386 4.161 41.226ZM15.313 39.845C17.376 41.557 62.038 41.534 63.158 39.82C63.633 39.094 63.904 36.475 63.761 34L63.5 29.5L39.57 29.231C21.094 29.024 15.457 29.252 14.836 30.231C13.555 32.249 13.873 38.65 15.313 39.845ZM71.824 36.487C72.271 41.976 67.083 41.568 139.227 41.792C204.027 41.994 361.343 43.144 570.5 44.946C630.45 45.463 712.575 45.909 753 45.939C793.425 45.968 869.475 46.434 922 46.974C1083.53 48.636 1194.67 48.928 1195.91 47.695C1197.62 45.979 1197.35 26.532 1195.58 25.07C1194.5 24.171 1133.32 24.146 934.834 24.963C792.2 25.55 543.875 26.451 383 26.966C222.125 27.481 86.38 28.188 81.344 28.538C71.226 29.239 71.234 29.233 71.824 36.487ZM1204.75 48.319C1205.16 48.559 1230.25 48.923 1260.5 49.128L1315.5 49.5L1315.78 36.211L1316.06 22.921L1265.28 23.404C1237.35 23.669 1212.14 23.912 1209.25 23.943L1204 24V35.941C1204 42.509 1204.34 48.078 1204.75 48.319ZM1409 50.063C1425.22 50.266 1441.2 50.486 1444.5 50.55C1586.76 53.345 1991.25 55.802 2007.5 53.97C2011.75 53.492 2012.43 53.251 2009.83 53.147C2003.07 52.876 2003.01 52.779 2002.9 42.143C2002.74 27.124 2001.61 25.911 2000.27 39.328C1999.63 45.762 1998.83 51.47 1998.49 52.014C1998.1 52.644 1988.4 52.821 1971.69 52.503C1906.04 51.253 1704.58 49.31 1522.51 48.17C1428.51 47.581 1415.5 47.318 1415.32 46C1415.21 45.175 1414.79 40 1414.38 34.5C1413.58 23.493 1412.55 26.103 1411.82 41L1411.5 47.5L1395.5 48.596L1379.5 49.693L1409 50.063ZM1933.5 6.595C1942.3 6.594 1945.77 6.44099 1941.2 6.255C1936.64 6.07 1929.44 6.07101 1925.2 6.258C1920.97 6.445 1924.7 6.596 1933.5 6.595ZM2100.23 54.502C2100.93 54.753 2127.15 55.081 2158.5 55.23L2215.5 55.5L2215.77 37.742L2216.05 19.984L2157.77 20.242L2099.5 20.5L2099.23 37.272C2099.02 50.153 2099.25 54.15 2100.23 54.502ZM2226.87 49.446L2227.5 52.391L2228.75 49.648C2230.39 46.055 2230.3 33.165 2228.61 30.13C2226.39 26.121 2225.05 40.97 2226.87 49.446ZM2250 4.589C2259.62 4.589 2263.56 4.439 2258.75 4.255C2253.94 4.072 2246.06 4.072 2241.25 4.255C2236.44 4.439 2240.38 4.589 2250 4.589ZM2269 64.68C2272.57 64.68 2274.04 64.498 2272.25 64.277C2270.46 64.055 2267.54 64.055 2265.75 64.277C2263.96 64.498 2265.43 64.68 2269 64.68ZM2272.86 52.414C2273.33 52.706 2274.01 50.207 2274.36 46.86C2275.1 39.721 2274.1 26.82 2272.86 27.587C2271.74 28.281 2271.74 51.72 2272.86 52.414ZM2284.72 54.75C2285.28 56.313 2291.08 56.378 2294.41 54.86C2301.48 51.638 2304.69 34.001 2300.26 22.75L2298.78 19H2292.01C2286.04 19 2285.17 19.241 2284.7 21.033C2284.06 23.467 2284.08 52.963 2284.72 54.75ZM-36 123V103H-16V123H-36ZM-36 -307V-327H-16L-16 -307H-36Z" fill="#F7F7F7"/>
<path fill-rule="evenodd" clip-rule="evenodd" d="M5.964 44C6.534 44 7 44.675 7 45.5C7 46.325 7.81 47 8.8 47C9.79 47 11.042 47.442 11.581 47.981C12.185 48.585 31.61 49.127 62.031 49.39C89.239 49.626 113.75 50.061 116.5 50.357C119.25 50.654 183.958 50.929 260.296 50.969C350.608 51.016 398.881 51.383 398.487 52.021C398.093 52.658 452.845 53 555.382 53C659.303 53 713.092 53.34 713.5 54C713.908 54.66 766.699 55 868.625 55C969.106 55 1023.78 55.348 1024.99 55.994C1026.2 56.641 1082.77 56.994 1186.87 57.006C1291.16 57.018 1347.11 57.368 1347.51 58.012C1347.84 58.555 1348.57 59 1349.12 59C1349.67 59 1349.78 58.437 1349.37 57.75C1348.77 56.759 1348.93 56.754 1350.13 57.724C1351.31 58.676 1383.11 58.957 1493.29 58.987C1595.15 59.014 1635.72 59.339 1637.72 60.141C1639.71 60.939 1690.67 61.46 1816.08 61.966C1912.65 62.356 1992.12 62.954 1992.67 63.296C1993.4 63.745 2262.18 64.417 2292.04 64.044C2298.45 63.964 2308.04 52.98 2309.29 44.276C2309.47 43.052 2309.93 41.74 2310.31 41.359C2313.51 38.154 2309.47 19.709 2303.87 11.975C2300.77 7.705 2295.62 5 2290.58 5C2288.83 5 2286.92 4.515 2286.32 3.923C2285.61 3.215 2282.21 3.066 2276.37 3.487C2267.44 4.132 2224.55 4.511 2049 5.497C1996.47 5.792 1930.1 6.23 1901.5 6.471C1872.9 6.712 1803.6 7.12801 1747.5 7.397C1429.98 8.91801 1289.1 10.011 1286.57 10.973C1284.77 11.658 1236.16 12 1140.38 12C1044.97 12 997.089 12.335 997.5 13C997.911 13.665 945.491 14 841 14C736.509 14 684.089 14.335 684.5 15C684.911 15.665 632.491 16 528 16C426.724 16 371.095 16.345 371.482 16.97C371.868 17.596 314.984 17.956 211.448 17.985C107.947 18.013 50.159 18.38 48.973 19.015C47.96 19.557 39.689 20 30.593 20C14.991 20 13.811 20.136 9.777 22.4L5.5 24.799L5.214 34.4C5.031 40.541 5.301 44 5.964 44ZM14.836 30.231C15.457 29.252 21.094 29.024 39.57 29.231L63.5 29.5L63.761 34C63.904 36.475 63.633 39.094 63.158 39.82C62.038 41.534 17.376 41.557 15.313 39.845C13.873 38.65 13.555 32.249 14.836 30.231ZM81.344 28.538C86.38 28.188 222.125 27.481 383 26.966C543.875 26.451 792.2 25.55 934.834 24.963C1133.32 24.146 1194.5 24.171 1195.58 25.07C1197.35 26.532 1197.62 45.979 1195.91 47.695C1194.67 48.928 1083.53 48.636 922 46.974C869.475 46.434 793.425 45.968 753 45.939C712.575 45.909 630.45 45.463 570.5 44.946C361.343 43.144 204.027 41.994 139.227 41.792C67.083 41.568 72.271 41.976 71.824 36.487C71.234 29.233 71.226 29.239 81.344 28.538ZM1209.25 23.943C1212.14 23.912 1237.35 23.669 1265.28 23.404L1316.06 22.921L1315.78 36.211L1315.5 49.5L1260.5 49.128C1230.25 48.923 1205.16 48.559 1204.75 48.319C1204.34 48.078 1204 42.509 1204 35.941V24L1209.25 23.943ZM1411.82 41C1412.55 26.103 1413.58 23.493 1414.38 34.5C1414.79 40 1415.21 45.175 1415.32 46C1415.5 47.318 1428.51 47.581 1522.51 48.17C1704.58 49.31 1906.04 51.253 1971.69 52.503C1988.4 52.821 1998.1 52.644 1998.49 52.014C1998.83 51.47 1999.63 45.762 2000.27 39.328C2001.61 25.911 2002.74 27.124 2002.9 42.143C2003.01 52.779 2003.07 52.876 2009.83 53.147C2012.43 53.251 2011.75 53.492 2007.5 53.97C1991.25 55.802 1586.76 53.345 1444.5 50.55C1441.2 50.486 1425.22 50.266 1409 50.063L1379.5 49.693L1395.5 48.596L1411.5 47.5L1411.82 41ZM2157.77 20.242L2216.05 19.984L2215.77 37.742L2215.5 55.5L2158.5 55.23C2127.15 55.081 2100.93 54.753 2100.23 54.502C2099.25 54.15 2099.02 50.153 2099.23 37.272L2099.5 20.5L2157.77 20.242ZM2226.66 31.63C2227.29 27.819 2227.32 27.796 2228.61 30.13C2230.3 33.165 2230.39 46.055 2228.75 49.648L2227.5 52.391L2226.87 49.446C2226 45.386 2225.89 36.289 2226.66 31.63ZM2272.86 27.587C2274.1 26.82 2275.1 39.721 2274.36 46.86C2274.01 50.207 2273.33 52.706 2272.86 52.414C2271.74 51.72 2271.74 28.281 2272.86 27.587ZM2284.7 21.033C2285.17 19.241 2286.04 19 2292.01 19H2298.78L2300.26 22.75C2304.69 34.001 2301.48 51.638 2294.41 54.86C2291.08 56.378 2285.28 56.313 2284.72 54.75C2284.08 52.963 2284.06 23.467 2284.7 21.033ZM-36 123V103H-16V123H-36ZM-36 -307V-327H-16L-16 -307H-36Z" fill="#363636"/>
</g>
<defs>
<clipPath id="clip0_2_6">
<rect width="68" height="2314" fill="white" transform="matrix(0 -1 1 0 0 68)"/>
</clipPath>
</defs>
</svg>
