<svg xmlns="http://www.w3.org/2000/svg" id="canvas" viewBox="183.851 568.693 846.148 157.930"><path d="M 188.58,624.35 C 189.82 624.63, 190.87 624.44, 193.03 623.39 C 195.19 622.34, 196.42 621.31, 199.38 619.11 C 202.34 616.92, 204.21 615.24, 207.83 612.43 C 211.46 609.61, 213.53 608.05, 217.52 605.05 C 221.51 602.05, 223.79 600.38, 227.78 597.41 C 231.77 594.44, 233.79 592.86, 237.47 590.18 C 241.15 587.50, 243.03 586.16, 246.20 584.02 C 249.37 581.87, 251.23 581.10, 253.33 579.44 C 255.43 577.78, 256.04 576.62, 256.70 575.72 C 257.37 574.81, 257.04 574.34, 256.65 574.92 C 256.26 575.50, 255.26 576.05, 254.76 578.62 C 254.25 581.19, 254.62 583.33, 254.12 587.77 C 253.62 592.21, 253.16 595.06, 252.27 600.83 C 251.39 606.59, 250.81 609.97, 249.71 616.61 C 248.62 623.26, 248.02 626.98, 246.81 634.05 C 245.60 641.13, 244.98 644.92, 243.67 651.98 C 242.35 659.04, 241.75 662.71, 240.22 669.34 C 238.70 675.96, 237.92 679.28, 236.04 685.10 C 234.16 690.92, 233.07 693.74, 230.83 698.43 C 228.59 703.12, 227.29 705.25, 224.82 708.55 C 222.35 711.86, 220.89 713.16, 218.48 714.95 C 216.07 716.73, 214.81 717.03, 212.78 717.47 C 210.75 717.91, 209.87 717.86, 208.35 717.15 C 206.83 716.44, 206.29 715.72, 205.18 713.92 C 204.07 712.13, 203.42 710.98, 202.80 708.16 C 202.18 705.34, 201.74 703.45, 202.10 699.83 C 202.46 696.21, 202.94 694.11, 204.58 690.08 C 206.22 686.06, 207.43 683.80, 210.28 679.70 C 213.13 675.61, 214.91 673.48, 218.83 669.62 C 222.75 665.75, 225.10 663.86, 229.90 660.39 C 234.69 656.92, 237.47 655.28, 242.81 652.27 C 248.15 649.27, 251.13 647.87, 256.60 645.36 C 262.06 642.85, 264.97 641.75, 270.15 639.72 C 275.33 637.70, 277.89 636.76, 282.49 635.23 C 287.09 633.70, 289.35 633.04, 293.14 632.08 C 296.93 631.12, 298.78 631.17, 301.44 630.41 C 304.10 629.64, 305.16 629.23, 306.45 628.25 C 307.74 627.27, 308.18 626.43, 307.90 625.50 C 307.61 624.57, 306.80 623.64, 305.01 623.60 C 303.22 623.55, 301.47 623.65, 298.96 625.28 C 296.44 626.90, 295.20 628.83, 292.44 631.71 C 289.67 634.60, 287.93 636.43, 285.14 639.72 C 282.35 643.00, 280.72 644.76, 278.49 648.14 C 276.27 651.51, 275.09 653.34, 274.01 656.60 C 272.93 659.85, 272.72 661.64, 273.10 664.40 C 273.48 667.17, 274.20 668.57, 275.91 670.43 C 277.62 672.29, 279.00 673.14, 281.65 673.70 C 284.31 674.25, 286.19 674.22, 289.19 673.20 C 292.19 672.19, 293.78 670.87, 296.65 668.62 C 299.52 666.37, 300.95 664.82, 303.52 661.94 C 306.10 659.07, 307.43 657.41, 309.52 654.24 C 311.62 651.08, 312.75 649.34, 314.00 646.13 C 315.25 642.91, 315.66 641.07, 315.77 638.16 C 315.89 635.26, 315.43 633.85, 314.59 631.62 C 313.75 629.40, 312.95 628.46, 311.57 627.03 C 310.20 625.60, 309.25 624.84, 307.72 624.48 C 306.19 624.12, 304.96 624.31, 303.92 625.24 C 302.87 626.16, 302.32 627.59, 302.49 629.09 C 302.66 630.59, 303.22 631.59, 304.77 632.73 C 306.31 633.88, 307.49 634.47, 310.22 634.81 C 312.96 635.14, 314.78 634.77, 318.44 634.42 C 322.10 634.07, 324.27 633.77, 328.53 633.07 C 332.79 632.36, 335.20 631.86, 339.74 630.91 C 344.29 629.95, 346.82 629.41, 351.27 628.29 C 355.71 627.17, 358.10 626.46, 361.98 625.30 C 365.86 624.13, 367.91 623.77, 370.65 622.47 C 373.39 621.16, 374.49 620.31, 375.69 618.78 C 376.89 617.25, 377.11 616.17, 376.66 614.80 C 376.20 613.43, 375.31 612.40, 373.41 611.93 C 371.50 611.47, 369.80 611.31, 367.15 612.49 C 364.50 613.67, 363.09 615.30, 360.18 617.83 C 357.27 620.36, 355.59 621.98, 352.60 625.15 C 349.61 628.32, 347.85 630.18, 345.21 633.67 C 342.57 637.16, 341.08 639.03, 339.41 642.60 C 337.74 646.18, 336.89 648.19, 336.87 651.53 C 336.84 654.87, 337.48 656.74, 339.30 659.30 C 341.12 661.87, 342.67 663.06, 345.96 664.35 C 349.26 665.64, 351.36 665.67, 355.78 665.76 C 360.20 665.85, 363.37 665.44, 368.05 664.80 C 372.73 664.16, 375.38 663.59, 379.17 662.56 C 382.96 661.54, 385.56 660.81, 387.00 659.66 C 388.44 658.50, 388.12 657.23, 386.35 656.79 C 384.58 656.36, 381.94 656.99, 378.15 657.49 C 374.35 657.99, 371.80 658.79, 367.36 659.29 C 362.93 659.78, 359.81 660.12, 355.95 659.96 C 352.10 659.81, 350.51 659.30, 348.09 658.51 C 345.68 657.72, 344.88 657.37, 343.86 656.01 C 342.84 654.65, 342.86 653.93, 343.01 651.72 C 343.16 649.52, 343.31 647.94, 344.63 644.99 C 345.94 642.05, 347.17 640.14, 349.59 637.01 C 352.01 633.88, 353.73 632.03, 356.71 629.35 C 359.69 626.67, 361.57 625.42, 364.48 623.62 C 367.40 621.82, 369.26 621.64, 371.29 620.36 C 373.32 619.08, 373.90 618.30, 374.64 617.22 C 375.38 616.14, 375.35 615.48, 374.98 614.98 C 374.62 614.47, 374.23 614.38, 372.82 614.68 C 371.40 614.98, 370.43 615.37, 367.91 616.48 C 365.39 617.58, 363.80 618.80, 360.23 620.20 C 356.65 621.61, 354.31 622.34, 350.02 623.49 C 345.73 624.63, 343.21 625.15, 338.78 625.92 C 334.35 626.70, 331.95 627.10, 327.87 627.36 C 323.79 627.62, 321.69 627.52, 318.39 627.22 C 315.10 626.91, 313.65 626.15, 311.40 625.83 C 309.15 625.51, 308.41 625.41, 307.14 625.61 C 305.88 625.82, 305.59 626.15, 305.08 626.86 C 304.58 627.58, 304.56 628.48, 304.63 629.19 C 304.71 629.91, 304.93 630.03, 305.46 630.45 C 306.00 630.87, 306.62 630.69, 307.31 631.31 C 307.99 631.94, 308.53 632.29, 308.89 633.58 C 309.25 634.86, 309.33 635.67, 309.12 637.71 C 308.90 639.75, 308.77 641.16, 307.81 643.78 C 306.85 646.40, 306.11 648.06, 304.31 650.81 C 302.52 653.57, 301.21 655.14, 298.83 657.55 C 296.46 659.95, 294.93 661.18, 292.44 662.85 C 289.94 664.52, 288.41 664.96, 286.37 665.88 C 284.32 666.81, 283.53 667.29, 282.21 667.49 C 280.90 667.68, 280.43 667.56, 279.78 666.86 C 279.12 666.15, 278.89 665.61, 278.94 663.96 C 278.98 662.32, 279.13 661.17, 280.01 658.63 C 280.89 656.10, 281.45 654.28, 283.35 651.29 C 285.26 648.30, 286.78 646.55, 289.54 643.68 C 292.30 640.82, 294.23 639.18, 297.15 636.97 C 300.07 634.76, 302.00 634.31, 304.15 632.64 C 306.31 630.96, 307.13 630.15, 307.92 628.61 C 308.70 627.08, 308.64 625.98, 308.07 624.96 C 307.51 623.94, 306.78 623.65, 305.10 623.52 C 303.42 623.38, 302.36 623.52, 299.67 624.30 C 296.98 625.08, 295.38 626.00, 291.67 627.41 C 287.95 628.82, 285.68 629.59, 281.10 631.36 C 276.52 633.14, 273.96 634.13, 268.77 636.29 C 263.57 638.45, 260.65 639.58, 255.11 642.16 C 249.58 644.74, 246.56 646.15, 241.09 649.21 C 235.63 652.26, 232.78 653.91, 227.79 657.43 C 222.80 660.95, 220.33 662.86, 216.13 666.81 C 211.94 670.77, 210.01 672.93, 206.81 677.19 C 203.62 681.45, 202.19 683.76, 200.14 688.13 C 198.09 692.50, 197.28 694.81, 196.54 699.06 C 195.81 703.30, 195.84 705.61, 196.45 709.35 C 197.05 713.08, 197.64 715.09, 199.58 717.75 C 201.51 720.41, 203.22 721.57, 206.12 722.65 C 209.02 723.74, 210.96 723.91, 214.08 723.18 C 217.20 722.45, 218.87 721.43, 221.72 719.00 C 224.58 716.57, 225.87 714.83, 228.36 711.02 C 230.85 707.21, 232.02 704.95, 234.18 699.96 C 236.35 694.97, 237.37 692.07, 239.18 686.08 C 240.99 680.09, 241.73 676.72, 243.22 670.02 C 244.71 663.31, 245.30 659.62, 246.64 652.54 C 247.97 645.45, 248.60 641.66, 249.90 634.60 C 251.20 627.54, 251.84 623.83, 253.15 617.23 C 254.46 610.64, 255.14 607.32, 256.45 601.63 C 257.77 595.94, 258.58 593.25, 259.71 588.79 C 260.84 584.33, 262.08 582.39, 262.10 579.31 C 262.13 576.24, 261.22 574.93, 259.84 573.41 C 258.46 571.89, 257.28 571.59, 255.20 571.72 C 253.12 571.85, 251.87 572.44, 249.44 574.06 C 247.00 575.68, 245.98 577.34, 243.03 579.83 C 240.08 582.31, 238.26 583.68, 234.68 586.49 C 231.10 589.29, 229.11 590.89, 225.13 593.84 C 221.15 596.79, 218.86 598.42, 214.77 601.24 C 210.68 604.07, 208.51 605.48, 204.67 607.96 C 200.83 610.44, 198.65 611.63, 195.58 613.64 C 192.50 615.65, 191.02 616.32, 189.28 617.99 C 187.53 619.66, 187.01 620.71, 186.87 621.98 C 186.73 623.26, 187.35 624.07, 188.58 624.35" style="stroke: black; fill: black;"/><path d="M 559.69,580.25 C 559.57 579.18, 559.14 578.35, 557.72 577.52 C 556.30 576.69, 555.07 576.02, 552.58 576.09 C 550.09 576.15, 548.42 576.46, 545.27 577.85 C 542.12 579.24, 540.59 580.51, 536.82 583.03 C 533.04 585.56, 530.83 587.00, 526.38 590.47 C 521.93 593.95, 519.39 596.04, 514.57 600.42 C 509.76 604.80, 507.04 607.35, 502.33 612.39 C 497.61 617.42, 495.02 620.34, 490.99 625.60 C 486.96 630.87, 485.02 633.74, 482.16 638.71 C 479.30 643.67, 478.06 646.13, 476.69 650.44 C 475.32 654.76, 474.75 656.86, 475.31 660.28 C 475.86 663.70, 476.94 665.51, 479.47 667.54 C 482.00 669.56, 484.06 670.20, 487.96 670.41 C 491.87 670.61, 494.26 670.00, 498.99 668.55 C 503.71 667.11, 506.33 665.90, 511.60 663.18 C 516.88 660.46, 519.77 658.71, 525.38 654.94 C 530.99 651.17, 534.00 648.91, 539.64 644.35 C 545.28 639.79, 548.20 637.20, 553.57 632.16 C 558.94 627.13, 561.65 624.39, 566.48 619.18 C 571.31 613.98, 573.61 611.16, 577.71 606.15 C 581.82 601.14, 583.75 598.54, 587.01 594.14 C 590.26 589.73, 592.13 587.52, 593.98 584.14 C 595.82 580.77, 596.40 579.10, 596.22 577.27 C 596.04 575.44, 594.74 574.62, 593.07 575.00 C 591.39 575.38, 590.03 576.28, 587.85 579.17 C 585.67 582.05, 584.69 584.76, 582.17 589.43 C 579.64 594.11, 578.11 597.25, 575.23 602.54 C 572.35 607.83, 570.66 610.69, 567.78 615.87 C 564.89 621.05, 563.32 623.83, 560.80 628.46 C 558.29 633.09, 556.92 635.38, 555.21 639.03 C 553.50 642.68, 552.49 644.15, 552.24 646.72 C 552.00 649.28, 552.57 650.54, 553.99 651.87 C 555.40 653.19, 556.90 653.70, 559.33 653.32 C 561.75 652.95, 563.14 651.95, 566.12 649.98 C 569.09 648.01, 570.71 646.17, 574.19 643.47 C 577.67 640.77, 579.83 639.00, 583.52 636.49 C 587.21 633.97, 589.27 632.64, 592.65 630.89 C 596.02 629.15, 598.08 628.84, 600.38 627.77 C 602.67 626.71, 603.35 625.93, 604.12 625.57 C 604.89 625.21, 604.60 625.24, 604.24 625.98 C 603.88 626.73, 603.19 627.41, 602.32 629.29 C 601.45 631.17, 600.83 632.63, 599.88 635.37 C 598.94 638.11, 598.23 639.99, 597.61 643.00 C 596.99 646.01, 596.59 647.71, 596.78 650.41 C 596.97 653.11, 597.22 654.55, 598.57 656.52 C 599.92 658.48, 601.02 659.49, 603.54 660.24 C 606.07 660.99, 607.81 661.04, 611.18 660.27 C 614.55 659.50, 616.40 658.31, 620.40 656.40 C 624.41 654.49, 626.71 653.17, 631.21 650.74 C 635.72 648.31, 638.29 646.83, 642.93 644.26 C 647.56 641.69, 650.05 640.24, 654.38 637.90 C 658.70 635.55, 660.88 634.29, 664.54 632.54 C 668.19 630.78, 670.18 630.46, 672.65 629.11 C 675.11 627.76, 675.90 627.07, 676.86 625.77 C 677.82 624.47, 677.95 623.74, 677.44 622.61 C 676.93 621.48, 676.11 620.56, 674.31 620.12 C 672.51 619.69, 671.05 619.52, 668.44 620.44 C 665.83 621.35, 664.37 622.67, 661.25 624.69 C 658.12 626.71, 656.23 628.01, 652.82 630.53 C 649.41 633.05, 647.43 634.57, 644.18 637.30 C 640.93 640.04, 639.09 641.50, 636.58 644.21 C 634.06 646.92, 632.73 648.29, 631.62 650.84 C 630.51 653.38, 630.49 654.90, 631.04 656.95 C 631.59 659.00, 632.43 660.04, 634.37 661.10 C 636.31 662.16, 637.90 662.66, 640.74 662.25 C 643.57 661.84, 645.28 660.80, 648.54 659.04 C 651.80 657.29, 653.53 655.88, 657.03 653.49 C 660.52 651.10, 662.51 649.55, 666.00 647.10 C 669.49 644.64, 671.87 643.33, 674.47 641.22 C 677.07 639.10, 678.18 637.90, 678.99 636.51 C 679.80 635.13, 679.37 634.44, 678.51 634.30 C 677.66 634.15, 676.39 634.49, 674.73 635.78 C 673.06 637.07, 671.58 638.38, 670.19 640.76 C 668.79 643.13, 668.29 644.98, 667.74 647.64 C 667.19 650.31, 666.99 651.79, 667.42 654.09 C 667.85 656.38, 668.33 657.61, 669.91 659.10 C 671.49 660.59, 672.78 661.30, 675.31 661.54 C 677.84 661.78, 679.50 661.56, 682.57 660.32 C 685.63 659.09, 687.15 657.61, 690.63 655.37 C 694.10 653.13, 696.11 651.69, 699.93 649.13 C 703.76 646.58, 705.95 645.08, 709.76 642.59 C 713.57 640.09, 716.01 638.67, 718.98 636.65 C 721.95 634.63, 723.41 633.67, 724.61 632.50 C 725.81 631.33, 725.55 630.56, 724.97 630.82 C 724.38 631.08, 723.17 631.40, 721.70 633.80 C 720.23 636.20, 719.64 638.61, 717.61 642.81 C 715.58 647.02, 714.22 649.83, 711.56 654.82 C 708.89 659.81, 707.32 662.63, 704.29 667.75 C 701.26 672.87, 699.46 675.59, 696.40 680.43 C 693.34 685.27, 691.72 687.84, 688.98 691.95 C 686.24 696.07, 684.66 698.05, 682.70 701.00 C 680.74 703.96, 679.77 705.14, 679.19 706.73 C 678.62 708.32, 679.07 709.04, 679.82 708.96 C 680.58 708.88, 681.81 708.51, 682.96 706.33 C 684.12 704.14, 684.14 702.00, 685.60 698.06 C 687.06 694.11, 687.88 691.40, 690.26 686.61 C 692.64 681.82, 694.25 679.09, 697.48 674.11 C 700.71 669.13, 702.69 666.42, 706.41 661.71 C 710.12 657.00, 712.17 654.59, 716.05 650.56 C 719.94 646.54, 722.06 644.63, 725.82 641.58 C 729.58 638.54, 731.56 637.23, 734.87 635.32 C 738.18 633.42, 739.80 632.94, 742.38 632.08 C 744.95 631.22, 746.04 631.10, 747.73 631.01 C 749.42 630.92, 750.02 631.14, 750.85 631.63 C 751.67 632.12, 751.80 632.49, 751.86 633.46 C 751.92 634.44, 751.81 635.02, 751.15 636.50 C 750.49 637.98, 749.97 638.85, 748.57 640.85 C 747.17 642.85, 746.28 644.33, 744.16 646.51 C 742.04 648.69, 740.54 649.95, 737.98 651.76 C 735.42 653.57, 733.81 654.30, 731.35 655.58 C 728.90 656.86, 727.47 657.30, 725.69 658.17 C 723.91 659.04, 723.19 659.38, 722.46 659.94 C 721.72 660.50, 721.80 660.68, 722.01 660.98 C 722.21 661.28, 722.52 661.53, 723.46 661.43 C 724.40 661.33, 725.06 661.29, 726.71 660.49 C 728.35 659.69, 729.34 658.98, 731.71 657.45 C 734.08 655.92, 735.39 654.67, 738.55 652.83 C 741.72 650.98, 743.68 650.06, 747.54 648.22 C 751.39 646.38, 753.63 645.43, 757.84 643.62 C 762.04 641.81, 764.40 640.83, 768.57 639.17 C 772.73 637.50, 774.92 636.63, 778.66 635.29 C 782.41 633.94, 784.39 633.47, 787.29 632.45 C 790.19 631.43, 791.63 630.90, 793.15 630.18 C 794.67 629.46, 794.85 628.88, 794.89 628.85 C 794.93 628.81, 794.23 628.84, 793.33 630.01 C 792.43 631.18, 791.64 632.12, 790.40 634.68 C 789.16 637.24, 788.77 639.28, 787.12 642.81 C 785.48 646.35, 784.34 648.39, 782.17 652.34 C 780.01 656.28, 778.71 658.55, 776.30 662.55 C 773.88 666.55, 772.51 668.67, 770.11 672.33 C 767.70 675.98, 766.37 677.84, 764.26 680.82 C 762.16 683.81, 760.78 685.09, 759.58 687.23 C 758.37 689.38, 758.21 690.41, 758.22 691.56 C 758.24 692.71, 758.73 693.12, 759.67 693.00 C 760.60 692.88, 761.70 692.72, 762.90 690.97 C 764.10 689.23, 764.27 687.60, 765.66 684.29 C 767.05 680.99, 767.69 678.61, 769.86 674.45 C 772.03 670.29, 773.50 667.90, 776.50 663.50 C 779.50 659.10, 781.32 656.68, 784.87 652.46 C 788.41 648.24, 790.48 646.12, 794.22 642.39 C 797.96 638.67, 799.91 636.84, 803.57 633.83 C 807.22 630.83, 809.14 629.43, 812.50 627.38 C 815.86 625.32, 817.62 624.66, 820.37 623.57 C 823.12 622.48, 824.32 622.25, 826.24 621.93 C 828.17 621.61, 828.91 621.64, 830.01 621.98 C 831.10 622.31, 831.33 622.73, 831.73 623.60 C 832.12 624.47, 832.11 625.03, 831.97 626.34 C 831.83 627.64, 831.64 628.44, 831.04 630.12 C 830.45 631.81, 830.04 632.92, 829.00 634.78 C 827.96 636.63, 827.34 637.63, 825.85 639.41 C 824.37 641.18, 823.34 642.11, 821.56 643.66 C 819.79 645.20, 818.67 645.91, 816.97 647.12 C 815.27 648.33, 814.25 648.71, 813.07 649.70 C 811.89 650.69, 811.33 651.08, 811.06 652.06 C 810.79 653.04, 811.04 653.81, 811.70 654.59 C 812.36 655.37, 812.95 655.84, 814.35 655.94 C 815.74 656.05, 816.56 655.94, 818.67 655.14 C 820.77 654.34, 822.02 653.42, 824.87 651.94 C 827.72 650.45, 829.47 649.45, 832.91 647.72 C 836.36 646.00, 838.34 645.10, 842.09 643.31 C 845.83 641.52, 847.88 640.55, 851.65 638.79 C 855.41 637.02, 857.40 636.01, 860.91 634.48 C 864.42 632.94, 866.29 632.29, 869.20 631.11 C 872.11 629.94, 873.61 629.58, 875.46 628.61 C 877.30 627.64, 877.95 626.96, 878.44 626.28 C 878.92 625.59, 878.59 625.19, 877.86 625.19 C 877.13 625.20, 876.24 625.31, 874.78 626.30 C 873.31 627.29, 872.16 628.13, 870.54 630.13 C 868.92 632.14, 867.98 633.78, 866.68 636.33 C 865.37 638.88, 864.63 640.35, 864.02 642.87 C 863.42 645.40, 863.19 646.77, 863.63 648.95 C 864.08 651.13, 864.64 652.28, 866.23 653.76 C 867.82 655.25, 869.07 655.95, 871.57 656.37 C 874.07 656.78, 875.72 656.72, 878.72 655.84 C 881.73 654.95, 883.30 653.74, 886.61 651.96 C 889.91 650.17, 891.76 649.02, 895.23 646.92 C 898.70 644.81, 900.55 643.56, 903.94 641.43 C 907.34 639.29, 909.29 638.16, 912.20 636.24 C 915.12 634.33, 916.99 633.44, 918.52 631.87 C 920.05 630.30, 920.13 629.18, 919.85 628.38 C 919.56 627.57, 918.63 627.33, 917.10 627.85 C 915.56 628.36, 914.06 629.07, 912.19 630.95 C 910.32 632.84, 909.22 634.61, 907.76 637.29 C 906.29 639.97, 905.57 641.65, 904.87 644.34 C 904.18 647.02, 903.93 648.42, 904.28 650.71 C 904.62 653.01, 905.07 654.23, 906.59 655.80 C 908.12 657.37, 909.42 658.08, 911.92 658.57 C 914.41 659.07, 916.01 659.09, 919.07 658.26 C 922.12 657.44, 923.76 656.25, 927.18 654.46 C 930.60 652.67, 932.60 651.46, 936.18 649.32 C 939.77 647.18, 941.72 645.83, 945.09 643.77 C 948.47 641.72, 950.77 640.91, 953.05 639.04 C 955.33 637.17, 956.08 635.78, 956.48 634.42 C 956.89 633.06, 956.27 632.39, 955.09 632.23 C 953.90 632.07, 952.49 632.28, 950.57 633.61 C 948.65 634.95, 947.02 636.33, 945.48 638.89 C 943.94 641.44, 943.41 643.49, 942.85 646.38 C 942.28 649.28, 942.13 650.86, 942.63 653.36 C 943.14 655.85, 943.67 657.16, 945.39 658.87 C 947.10 660.58, 948.48 661.41, 951.23 661.91 C 953.97 662.41, 955.70 662.21, 959.11 661.39 C 962.52 660.57, 964.40 659.53, 968.29 657.79 C 972.18 656.05, 974.37 654.87, 978.58 652.69 C 982.78 650.51, 985.08 649.13, 989.30 646.88 C 993.52 644.63, 995.79 643.36, 999.68 641.43 C 1003.58 639.50, 1005.60 638.59, 1008.78 637.22 C 1011.95 635.85, 1013.39 635.44, 1015.55 634.57 C 1017.72 633.71, 1018.50 633.31, 1019.61 632.89 C 1020.72 632.46, 1020.94 632.39, 1021.10 632.44 C 1021.26 632.50, 1020.80 632.56, 1020.41 633.16 C 1020.02 633.77, 1019.61 634.30, 1019.15 635.47 C 1018.70 636.63, 1018.65 637.40, 1018.16 638.99 C 1017.67 640.57, 1017.37 641.53, 1016.70 643.40 C 1016.03 645.27, 1015.66 646.41, 1014.81 648.34 C 1013.96 650.27, 1013.55 651.25, 1012.47 653.04 C 1011.40 654.83, 1010.82 655.75, 1009.45 657.31 C 1008.07 658.87, 1007.28 659.56, 1005.60 660.84 C 1003.91 662.13, 1002.96 662.74, 1001.05 663.75 C 999.13 664.76, 998.03 665.20, 996.01 665.89 C 994.00 666.58, 992.82 666.74, 990.96 667.21 C 989.11 667.67, 988.06 667.85, 986.74 668.21 C 985.42 668.57, 985.04 668.70, 984.36 668.98 C 983.68 669.27, 983.55 669.28, 983.35 669.63 C 983.15 669.97, 983.36 670.43, 983.36 670.72 C 983.37 671.01, 983.67 671.17, 983.37 671.08 C 983.06 670.98, 982.22 670.20, 981.85 670.23 C 981.48 670.26, 981.44 670.66, 981.51 671.20 C 981.58 671.75, 981.70 672.36, 982.20 672.95 C 982.71 673.54, 983.01 673.76, 984.03 674.15 C 985.04 674.54, 985.60 674.80, 987.28 674.91 C 988.97 675.02, 990.20 675.07, 992.46 674.71 C 994.71 674.36, 996.11 674.01, 998.55 673.15 C 1000.98 672.28, 1002.31 671.67, 1004.64 670.39 C 1006.96 669.11, 1008.08 668.36, 1010.16 666.74 C 1012.23 665.13, 1013.26 664.23, 1015.02 662.30 C 1016.77 660.38, 1017.53 659.22, 1018.92 657.11 C 1020.31 655.00, 1020.86 653.90, 1021.96 651.76 C 1023.06 649.61, 1023.56 648.47, 1024.42 646.38 C 1025.28 644.28, 1025.76 643.25, 1026.27 641.27 C 1026.78 639.29, 1027.05 638.30, 1026.99 636.48 C 1026.92 634.66, 1026.70 633.69, 1025.94 632.19 C 1025.18 630.70, 1024.59 629.89, 1023.19 629.00 C 1021.80 628.11, 1020.95 627.80, 1018.98 627.74 C 1017.02 627.69, 1015.89 627.85, 1013.37 628.74 C 1010.85 629.62, 1009.57 630.51, 1006.37 632.17 C 1003.18 633.84, 1001.27 634.95, 997.41 637.05 C 993.55 639.15, 991.28 640.45, 987.07 642.67 C 982.86 644.88, 980.53 646.21, 976.34 648.14 C 972.16 650.06, 969.91 651.07, 966.15 652.31 C 962.40 653.55, 960.45 653.80, 957.58 654.34 C 954.71 654.88, 953.56 654.90, 951.81 655.02 C 950.07 655.14, 949.49 655.33, 948.84 654.95 C 948.20 654.58, 948.22 654.25, 948.60 653.14 C 948.98 652.03, 949.52 651.16, 950.73 649.41 C 951.94 647.67, 953.33 646.64, 954.66 644.43 C 956.00 642.21, 956.86 640.56, 957.40 638.32 C 957.93 636.09, 957.94 634.70, 957.34 633.26 C 956.74 631.82, 956.09 631.16, 954.40 631.14 C 952.70 631.11, 951.38 631.60, 948.86 633.12 C 946.34 634.65, 944.93 636.56, 941.81 638.77 C 938.68 640.98, 936.71 642.26, 933.23 644.18 C 929.75 646.09, 927.68 647.11, 924.41 648.35 C 921.14 649.59, 919.35 649.69, 916.90 650.38 C 914.45 651.07, 913.57 651.44, 912.15 651.80 C 910.73 652.16, 910.26 652.35, 909.80 652.16 C 909.34 651.98, 909.41 651.82, 909.84 650.88 C 910.28 649.94, 910.77 649.15, 912.00 647.47 C 913.22 645.79, 914.34 644.69, 915.97 642.48 C 917.59 640.28, 919.01 638.85, 920.11 636.45 C 921.22 634.05, 921.55 632.43, 921.49 630.48 C 921.44 628.54, 921.11 627.52, 919.83 626.73 C 918.55 625.94, 917.33 625.67, 915.09 626.52 C 912.84 627.37, 911.45 628.95, 908.61 630.97 C 905.76 632.99, 904.11 634.47, 900.85 636.62 C 897.58 638.78, 895.71 639.93, 892.29 641.76 C 888.86 643.58, 886.93 644.54, 883.74 645.75 C 880.55 646.97, 878.76 647.10, 876.34 647.84 C 873.91 648.58, 873.02 649.05, 871.62 649.44 C 870.21 649.83, 869.82 649.92, 869.32 649.79 C 868.83 649.65, 868.81 649.58, 869.15 648.76 C 869.49 647.95, 869.98 647.25, 871.02 645.71 C 872.06 644.17, 872.88 643.03, 874.36 641.06 C 875.84 639.10, 877.03 637.99, 878.41 635.90 C 879.79 633.81, 880.68 632.71, 881.27 630.63 C 881.85 628.54, 881.95 627.10, 881.34 625.46 C 880.74 623.82, 879.87 622.98, 878.24 622.41 C 876.62 621.83, 875.53 621.99, 873.22 622.56 C 870.90 623.14, 869.59 623.91, 866.66 625.28 C 863.73 626.66, 862.00 627.71, 858.55 629.45 C 855.09 631.19, 853.13 632.21, 849.39 633.97 C 845.64 635.73, 843.61 636.66, 839.82 638.25 C 836.03 639.84, 834.04 640.66, 830.45 641.92 C 826.86 643.19, 824.95 643.64, 821.86 644.59 C 818.77 645.54, 817.17 645.63, 815.01 646.66 C 812.86 647.69, 812.03 648.42, 811.09 649.76 C 810.15 651.09, 810.07 652.10, 810.31 653.35 C 810.55 654.59, 811.11 655.45, 812.29 655.97 C 813.47 656.50, 814.45 656.45, 816.21 655.95 C 817.98 655.46, 819.03 654.75, 821.12 653.50 C 823.21 652.24, 824.50 651.46, 826.66 649.66 C 828.82 647.87, 830.04 646.73, 831.91 644.53 C 833.79 642.33, 834.68 641.13, 836.03 638.66 C 837.38 636.20, 838.09 634.77, 838.66 632.21 C 839.23 629.64, 839.29 628.19, 838.88 625.82 C 838.46 623.45, 837.99 622.17, 836.59 620.36 C 835.20 618.55, 834.13 617.65, 831.90 616.77 C 829.68 615.89, 828.22 615.67, 825.45 615.98 C 822.68 616.29, 821.19 616.84, 818.07 618.32 C 814.95 619.80, 813.30 620.92, 809.85 623.37 C 806.40 625.83, 804.51 627.36, 800.82 630.60 C 797.13 633.84, 795.19 635.72, 791.39 639.57 C 787.59 643.42, 785.50 645.58, 781.81 649.86 C 778.12 654.13, 776.24 656.57, 772.94 660.95 C 769.64 665.32, 768.06 667.69, 765.32 671.72 C 762.57 675.75, 761.06 677.79, 759.20 681.11 C 757.33 684.44, 756.37 685.94, 755.99 688.33 C 755.61 690.73, 756.30 691.92, 757.28 693.08 C 758.26 694.25, 759.34 694.57, 760.89 694.14 C 762.45 693.70, 763.43 692.97, 765.04 690.91 C 766.66 688.85, 767.13 687.03, 768.98 683.85 C 770.83 680.66, 771.99 678.73, 774.28 674.98 C 776.58 671.23, 777.95 669.08, 780.43 665.09 C 782.92 661.10, 784.25 658.86, 786.70 655.02 C 789.16 651.19, 790.49 649.31, 792.70 645.92 C 794.91 642.52, 796.47 640.97, 797.74 638.03 C 799.01 635.10, 799.21 633.54, 799.06 631.24 C 798.90 628.93, 798.36 627.81, 796.97 626.51 C 795.58 625.21, 794.48 624.71, 792.12 624.72 C 789.76 624.74, 788.25 625.44, 785.17 626.58 C 782.09 627.72, 780.42 628.81, 776.73 630.43 C 773.04 632.04, 770.88 632.91, 766.72 634.64 C 762.56 636.36, 760.20 637.32, 755.93 639.04 C 751.66 640.76, 749.40 641.65, 745.37 643.24 C 741.33 644.83, 739.30 645.63, 735.76 647.01 C 732.21 648.38, 730.41 648.80, 727.64 650.12 C 724.88 651.43, 723.69 652.04, 721.95 653.58 C 720.20 655.12, 719.43 656.09, 718.92 657.83 C 718.40 659.57, 718.62 660.88, 719.36 662.28 C 720.10 663.67, 720.90 664.33, 722.61 664.81 C 724.33 665.29, 725.50 665.25, 727.91 664.69 C 730.33 664.13, 731.90 663.47, 734.71 662.01 C 737.51 660.54, 739.06 659.41, 741.95 657.37 C 744.84 655.32, 746.48 654.14, 749.16 651.76 C 751.83 649.38, 753.53 648.15, 755.33 645.46 C 757.13 642.78, 757.72 641.06, 758.16 638.32 C 758.60 635.59, 758.40 634.04, 757.52 631.80 C 756.63 629.56, 755.70 628.45, 753.75 627.14 C 751.79 625.83, 750.42 625.37, 747.75 625.26 C 745.07 625.16, 743.46 625.41, 740.37 626.62 C 737.29 627.83, 735.77 628.95, 732.33 631.32 C 728.90 633.69, 726.99 635.14, 723.19 638.47 C 719.40 641.81, 717.28 643.80, 713.35 648.00 C 709.42 652.19, 707.36 654.65, 703.54 659.43 C 699.72 664.22, 697.71 666.94, 694.24 671.93 C 690.76 676.92, 689.02 679.63, 686.17 684.37 C 683.32 689.11, 681.95 691.64, 679.98 695.63 C 678.01 699.62, 676.67 701.52, 676.32 704.32 C 675.97 707.12, 676.99 708.59, 678.24 709.64 C 679.48 710.70, 680.76 710.76, 682.54 709.61 C 684.32 708.47, 685.14 707.00, 687.15 703.92 C 689.15 700.83, 690.07 698.48, 692.56 694.18 C 695.06 689.89, 696.63 687.34, 699.64 682.45 C 702.65 677.57, 704.45 674.84, 707.60 669.76 C 710.76 664.67, 712.42 661.89, 715.42 657.04 C 718.42 652.20, 720.10 649.62, 722.59 645.52 C 725.08 641.43, 726.89 639.62, 727.87 636.57 C 728.85 633.52, 728.50 631.96, 727.48 630.27 C 726.47 628.57, 725.17 627.83, 722.82 628.11 C 720.46 628.39, 718.90 629.65, 715.71 631.69 C 712.52 633.72, 710.58 635.70, 706.86 638.29 C 703.13 640.89, 700.94 642.32, 697.08 644.65 C 693.22 646.98, 691.05 648.26, 687.57 649.95 C 684.09 651.63, 682.22 652.07, 679.68 653.07 C 677.13 654.08, 676.22 654.44, 674.86 654.95 C 673.50 655.47, 673.17 655.75, 672.86 655.63 C 672.55 655.52, 672.71 655.33, 673.31 654.37 C 673.90 653.42, 674.61 652.62, 675.82 650.87 C 677.03 649.12, 678.25 647.95, 679.35 645.62 C 680.45 643.30, 681.10 641.53, 681.31 639.23 C 681.53 636.93, 681.38 635.46, 680.42 634.13 C 679.47 632.80, 678.53 632.22, 676.54 632.58 C 674.55 632.94, 673.25 633.96, 670.46 635.93 C 667.68 637.91, 665.95 639.94, 662.62 642.44 C 659.29 644.93, 657.25 646.41, 653.81 648.43 C 650.36 650.44, 648.39 651.26, 645.40 652.51 C 642.40 653.77, 640.80 653.91, 638.83 654.72 C 636.85 655.53, 636.27 656.19, 635.53 656.56 C 634.78 656.94, 634.78 657.13, 635.10 656.59 C 635.42 656.04, 635.92 655.51, 637.12 653.85 C 638.32 652.20, 638.96 650.75, 641.10 648.30 C 643.25 645.86, 644.83 644.20, 647.84 641.63 C 650.86 639.07, 652.82 637.58, 656.19 635.47 C 659.56 633.37, 661.56 632.44, 664.68 631.12 C 667.81 629.80, 669.59 629.88, 671.81 628.86 C 674.03 627.85, 674.78 627.17, 675.78 626.04 C 676.78 624.91, 677.00 624.03, 676.80 623.22 C 676.59 622.41, 676.17 621.95, 674.75 621.98 C 673.32 622.02, 672.19 622.15, 669.67 623.38 C 667.15 624.61, 665.64 626.01, 662.14 628.14 C 658.65 630.27, 656.48 631.58, 652.21 634.03 C 647.95 636.49, 645.46 637.93, 640.83 640.42 C 636.20 642.90, 633.58 644.33, 629.05 646.46 C 624.53 648.59, 622.09 649.70, 618.19 651.07 C 614.29 652.44, 612.30 652.64, 609.54 653.31 C 606.79 653.99, 605.77 654.28, 604.41 654.45 C 603.05 654.62, 602.88 654.84, 602.74 654.16 C 602.60 653.48, 603.11 652.81, 603.70 651.04 C 604.30 649.26, 604.79 647.86, 605.73 645.27 C 606.68 642.68, 607.58 640.99, 608.43 638.09 C 609.29 635.19, 609.98 633.45, 609.99 630.79 C 610.00 628.13, 609.60 626.65, 608.51 624.78 C 607.41 622.91, 606.60 622.09, 604.51 621.46 C 602.41 620.83, 600.96 620.72, 598.04 621.64 C 595.13 622.56, 593.45 623.97, 589.95 626.05 C 586.45 628.13, 584.41 629.54, 580.56 632.04 C 576.71 634.54, 574.41 636.17, 570.71 638.55 C 567.01 640.94, 564.79 642.08, 562.06 643.97 C 559.32 645.85, 558.28 646.79, 557.04 647.99 C 555.80 649.18, 555.82 649.96, 555.85 649.94 C 555.88 649.92, 556.42 649.66, 557.19 647.87 C 557.97 646.09, 558.27 644.53, 559.72 641.02 C 561.16 637.51, 562.13 634.98, 564.42 630.33 C 566.70 625.67, 568.24 622.88, 571.13 617.74 C 574.01 612.60, 575.73 609.75, 578.86 604.64 C 581.99 599.52, 583.88 596.56, 586.76 592.18 C 589.64 587.79, 591.59 585.73, 593.27 582.71 C 594.95 579.68, 595.19 578.34, 595.16 577.04 C 595.12 575.74, 594.19 575.28, 593.08 576.21 C 591.97 577.14, 591.44 578.52, 589.61 581.68 C 587.77 584.84, 586.79 587.51, 583.91 592.00 C 581.03 596.49, 579.12 599.11, 575.20 604.14 C 571.27 609.17, 569.00 611.97, 564.27 617.14 C 559.53 622.31, 556.85 625.03, 551.53 629.98 C 546.22 634.94, 543.30 637.50, 537.70 641.91 C 532.09 646.32, 529.07 648.53, 523.49 652.06 C 517.92 655.58, 515.00 657.20, 509.84 659.55 C 504.68 661.91, 502.02 662.80, 497.69 663.85 C 493.36 664.90, 491.22 664.90, 488.21 664.80 C 485.19 664.70, 484.19 664.42, 482.62 663.36 C 481.05 662.29, 480.73 661.82, 480.37 659.47 C 480.01 657.13, 479.81 655.44, 480.81 651.64 C 481.80 647.84, 482.78 645.28, 485.35 640.48 C 487.93 635.68, 489.78 632.79, 493.66 627.63 C 497.54 622.47, 500.10 619.59, 504.76 614.69 C 509.43 609.79, 512.16 607.30, 516.99 603.15 C 521.82 599.00, 524.41 597.02, 528.92 593.94 C 533.43 590.86, 535.75 589.57, 539.53 587.76 C 543.31 585.95, 545.09 585.64, 547.83 584.89 C 550.57 584.13, 551.56 584.27, 553.24 584.00 C 554.92 583.72, 555.21 583.72, 556.23 583.49 C 557.25 583.27, 557.64 583.52, 558.33 582.87 C 559.03 582.22, 559.81 581.32, 559.69 580.25" style="stroke: black; fill: black;"/></svg>