{
  "accessors": [
    {
      "bufferView": 2,
      "componentType": 5126,
      "count": 396,
      "max": [
        0.5477402210235596,
        0.5477436184883118,
        28.970958709716797
      ],
      "min": [
        -0.5477402210235596,
        -0.5477368235588074,
        -28.970958709716797
      ],
      "type": "VEC3"
    },
    {
      "bufferView": 2,
      "byteOffset": 4752,
      "componentType": 5126,
      "count": 396,
      "max": [
        1.0,
        1.0,
        1.0
      ],
      "min": [
        -1.0,
        -1.0,
        -1.0
      ],
      "type": "VEC3"
    },
    {
      "bufferView": 3,
      "componentType": 5126,
      "count": 396,
      "max": [
        0.9999973177909851,
        0.9999989867210388,
        1.0,
        1.0
      ],
      "min": [
        -0.9999973177909851,
        -1.0,
        -0.8765527606010437,
        1.0
      ],
      "type": "VEC4"
    },
    {
      "bufferView": 1,
      "componentType": 5126,
      "count": 396,
      "max": [
        0.27612224221229553,
        0.9961557388305664
      ],
      "min": [
        0.002467515179887414,
        0.003022506833076477
      ],
      "type": "VEC2"
    },
    {
      "bufferView": 1,
      "byteOffset": 3168,
      "componentType": 5126,
      "count": 396,
      "max": [
        0.27612224221229553,
        0.9961557388305664
      ],
      "min": [
        0.002467515179887414,
        0.003022506833076477
      ],
      "type": "VEC2"
    },
    {
      "bufferView": 1,
      "byteOffset": 6336,
      "componentType": 5126,
      "count": 396,
      "max": [
        0.27612224221229553,
        0.9961557388305664
      ],
      "min": [
        0.002467515179887414,
        0.003022506833076477
      ],
      "type": "VEC2"
    },
    {
      "bufferView": 0,
      "componentType": 5125,
      "count": 1440,
      "type": "SCALAR"
    }
  ],
  "asset": {
    "extras": {
      "author": "plaggy (https://sketchfab.com/plaggy)",
      "license": "CC-BY-4.0 (http://creativecommons.org/licenses/by/4.0/)",
      "source": "https://sketchfab.com/3d-models/cc0-cue-stick-311d2a1ac8d64037b6b9f8561d6d13ed",
      "title": "CC0 - Cue Stick"
    },
    "generator": "Sketchfab-15.26.0",
    "version": "2.0"
  },
  "bufferViews": [
    {
      "buffer": 0,
      "byteLength": 5760,
      "name": "floatBufferViews",
      "target": 34963
    },
    {
      "buffer": 0,
      "byteLength": 9504,
      "byteOffset": 5760,
      "byteStride": 8,
      "name": "floatBufferViews",
      "target": 34962
    },
    {
      "buffer": 0,
      "byteLength": 9504,
      "byteOffset": 15264,
      "byteStride": 12,
      "name": "floatBufferViews",
      "target": 34962
    },
    {
      "buffer": 0,
      "byteLength": 6336,
      "byteOffset": 24768,
      "byteStride": 16,
      "name": "floatBufferViews",
      "target": 34962
    }
  ],
  "buffers": [
    {
      "byteLength": 31104,
      "uri": "scene.bin"
    }
  ],
  "images": [
    {
      "uri": "textures/CueStick_baseColor.png"
    },
    {
      "uri": "textures/CueStick_metallicRoughness.png"
    },
    {
      "uri": "textures/CueStick_normal.png"
    }
  ],
  "materials": [
    {
      "doubleSided": true,
      "name": "CueStick",
      "normalTexture": {
        "index": 2
      },
      "pbrMetallicRoughness": {
        "baseColorTexture": {
          "index": 0
        },
        "metallicRoughnessTexture": {
          "index": 1
        }
      }
    }
  ],
  "meshes": [
    {
      "name": "CueStick_CueStick_0",
      "primitives": [
        {
          "attributes": {
            "NORMAL": 1,
            "POSITION": 0,
            "TANGENT": 2,
            "TEXCOORD_0": 3,
            "TEXCOORD_1": 4,
            "TEXCOORD_2": 5
          },
          "indices": 6,
          "material": 0,
          "mode": 4
        }
      ]
    }
  ],
  "nodes": [
    {
      "children": [
        1
      ],
      "matrix": [
        1.0,
        0.0,
        0.0,
        0.0,
        0.0,
        2.220446049250313e-16,
        -1.0,
        0.0,
        0.0,
        1.0,
        2.220446049250313e-16,
        0.0,
        0.0,
        0.0,
        0.0,
        1.0
      ],
      "name": "Sketchfab_model"
    },
    {
      "children": [
        2
      ],
      "matrix": [
        0.02539999969303608,
        0.0,
        0.0,
        0.0,
        0.0,
        0.0,
        0.02539999969303608,
        0.0,
        0.0,
        -0.02539999969303608,
        0.0,
        0.0,
        0.0,
        0.0,
        0.0,
        1.0
      ],
      "name": "ec1b8100f1114243873a4e73d7465ec1.fbx"
    },
    {
      "children": [
        3
      ],
      "name": "RootNode"
    },
    {
      "children": [
        4
      ],
      "matrix": [
        0.8459361560932508,
        -0.47745873222134977,
        0.07394801623636213,
        0.0,
        -0.3217938114424909,
        -0.6680010766722957,
        -0.6318753316497686,
        0.0,
        0.3603940801359346,
        0.5242621966685868,
        -0.7377725844816533,
        0.0,
        0.0,
        0.0,
        0.0,
        1.0
      ],
      "name": "CueStick"
    },
    {
      "mesh": 0,
      "name": "CueStick_CueStick_0"
    }
  ],
  "samplers": [
    {
      "magFilter": 9729,
      "minFilter": 9987,
      "wrapS": 10497,
      "wrapT": 10497
    }
  ],
  "scene": 0,
  "scenes": [
    {
      "name": "Sketchfab_Scene",
      "nodes": [
        0
      ]
    }
  ],
  "textures": [
    {
      "sampler": 0,
      "source": 0
    },
    {
      "sampler": 0,
      "source": 1
    },
    {
      "sampler": 0,
      "source": 2
    }
  ]
}
